<?xml version="1.0" standalone="no"?>
<!DOCTYPE svg PUBLIC "-//W3C//DTD SVG 20010904//EN"
 "http://www.w3.org/TR/2001/REC-SVG-20010904/DTD/svg10.dtd">
<svg version="1.0" xmlns="http://www.w3.org/2000/svg"
 width="800.000000pt" height="800.000000pt" viewBox="0 0 800.000000 800.000000"
 preserveAspectRatio="xMidYMid meet">

<g transform="translate(0.000000,800.000000) scale(0.100000,-0.100000)"
fill="#000000" stroke="none">
<path d="M0 4000 l0 -4000 1661 0 1662 0 -6 38 c-3 20 -13 91 -22 157 -9 66
-20 138 -25 159 -5 25 -5 47 1 58 7 12 6 18 -1 18 -6 0 -8 5 -5 10 4 6 11 8
16 5 5 -4 9 1 9 9 0 9 -6 15 -12 14 -9 -2 -13 15 -13 58 0 35 -5 68 -13 76 -7
9 -15 29 -17 44 -12 74 -24 137 -30 153 -3 11 -12 66 -20 123 -8 56 -19 132
-24 168 -18 116 -31 214 -62 465 -13 105 -28 192 -43 246 -12 42 35 162 91
236 14 18 22 37 18 44 -4 6 -1 15 6 20 11 7 10 9 -3 9 -12 0 -18 -8 -18 -24 0
-32 -12 -39 -36 -21 -10 8 -14 15 -7 15 9 0 8 10 -4 37 -11 28 -12 42 -4 55 9
14 8 16 -4 12 -18 -7 -19 9 -4 39 9 16 9 22 0 25 -6 2 -11 12 -11 23 0 10 -7
19 -15 19 -9 0 -15 9 -15 23 0 15 3 18 8 9 6 -9 12 -5 21 14 10 23 10 26 -4
20 -11 -4 -17 2 -22 24 -3 17 -9 30 -13 30 -4 0 -7 11 -7 25 0 15 5 25 14 25
8 0 11 5 8 10 -4 6 -1 17 5 25 9 11 9 15 1 15 -6 0 -11 -4 -11 -10 0 -5 -7 -7
-15 -4 -12 5 -12 10 -3 27 7 12 11 25 10 29 -1 3 5 9 13 12 15 6 75 -45 75
-64 0 -5 4 -9 8 -7 4 1 73 -62 152 -140 163 -159 194 -185 205 -175 5 4 5 1 1
-5 -11 -19 53 -55 69 -40 9 8 10 18 4 30 -6 11 -6 17 1 17 5 0 10 -6 10 -12 0
-8 7 -4 15 6 9 12 12 29 9 40 -6 19 -6 19 10 3 23 -23 29 -21 16 3 -14 27 -3
25 21 -2 13 -17 18 -19 19 -8 0 13 1 13 10 0 7 -11 10 -4 10 25 0 40 0 40 40
41 22 1 37 -2 35 -7 -3 -4 -1 -10 5 -14 5 -3 10 1 10 10 0 9 4 14 9 10 5 -3
12 4 16 15 4 13 15 20 31 20 30 0 44 29 21 41 -9 5 -23 16 -30 24 -13 12 -16
12 -20 -5 -5 -20 -47 -29 -47 -10 0 5 6 7 14 4 19 -7 26 29 10 50 -7 10 -17
15 -23 11 -6 -3 -11 0 -11 8 0 10 8 13 24 10 16 -3 23 -10 19 -19 -7 -19 4
-18 27 4 11 10 38 19 60 20 52 4 180 36 220 57 30 16 33 35 4 35 -8 0 -14 6
-14 14 0 8 -4 18 -10 21 -5 3 -7 0 -4 -8 4 -10 -4 -16 -28 -19 -40 -6 -58 -1
-58 18 0 15 -1 16 -42 18 -26 2 -26 2 -11 -29 14 -25 14 -28 1 -18 -8 7 -18
10 -21 7 -4 -4 -11 5 -16 19 -7 18 -15 25 -26 21 -11 -5 -15 0 -15 17 0 17 -3
20 -9 10 -11 -17 -51 -5 -51 15 0 17 -1 17 -34 4 -26 -10 -31 -5 -27 27 2 17
-16 17 -22 1 -3 -8 -21 4 -47 31 -31 30 -45 53 -47 77 -3 28 -1 33 14 28 11
-4 14 -3 7 3 -6 4 -11 24 -10 45 1 22 5 33 11 29 6 -4 19 -11 29 -15 19 -7 19
-6 1 14 -16 18 -16 20 -2 20 10 0 17 4 17 10 0 5 3 9 8 7 4 -1 7 3 7 8 0 6 -3
9 -7 8 -5 -2 -8 1 -8 6 0 5 -14 11 -31 15 -20 4 -28 10 -23 18 5 7 2 9 -7 6
-11 -4 -14 3 -14 32 0 21 3 37 6 34 4 -2 10 3 13 12 9 23 7 31 -3 15 -5 -7
-13 -12 -19 -10 -20 7 15 40 44 43 16 1 28 8 27 14 -4 18 56 2 84 -22 13 -11
21 -26 19 -33 -3 -7 3 -17 14 -23 24 -13 33 -13 25 0 -3 6 -1 10 4 10 6 0 11
-4 11 -10 0 -5 4 -10 10 -10 5 0 7 13 5 29 -2 22 0 28 10 25 22 -9 28 16 9 31
-18 13 -18 14 -1 15 25 0 32 -4 29 -15 -2 -5 -1 -7 3 -3 4 3 25 0 47 -8 52
-18 68 -18 68 1 0 8 -5 15 -11 15 -6 0 -4 9 5 21 13 19 13 24 0 36 -7 8 -19
11 -25 8 -6 -4 -13 2 -16 13 -3 13 -11 18 -19 15 -8 -3 -22 -2 -32 2 -19 8
-65 17 -98 19 -13 1 -20 6 -17 13 3 7 0 13 -6 13 -6 0 -11 -5 -11 -12 0 -9 -3
-9 -12 0 -7 7 -21 12 -32 12 -17 0 -18 2 -7 9 12 8 13 14 3 35 -7 16 -8 26 -2
26 6 0 9 6 7 13 -1 8 13 13 40 15 l41 3 -8 -35 c-5 -25 -4 -36 5 -40 8 -3 11
2 8 15 -3 10 0 19 6 19 18 0 13 -38 -6 -49 -17 -10 -17 -10 -1 -11 10 0 23 10
29 22 16 29 35 48 49 48 7 0 9 9 5 23 -5 19 -4 20 7 7 15 -18 100 -23 110 -6
12 19 90 12 140 -12 25 -13 60 -27 77 -32 27 -7 33 -6 43 13 6 12 15 25 21 28
5 4 0 10 -12 14 -11 3 -21 10 -21 15 0 5 -7 7 -15 4 -8 -4 -15 -1 -15 5 0 6
-7 8 -15 5 -8 -4 -15 -1 -15 4 0 6 -9 14 -20 17 -11 3 -20 13 -20 21 0 9 -7
14 -17 13 -26 -4 -73 10 -73 21 0 6 -5 10 -11 10 -6 0 -18 7 -27 16 -9 9 -17
13 -19 8 -4 -11 -114 -5 -129 7 -6 5 -19 7 -28 3 -9 -3 -16 -1 -16 5 0 6 -12
11 -27 11 -16 0 -41 7 -57 15 -15 8 -32 13 -36 10 -5 -3 -13 7 -19 22 l-11 28
4 -28 c2 -17 -1 -26 -8 -24 -22 7 -18 40 10 63 15 13 24 24 20 24 -4 0 -1 6 6
14 7 7 20 11 28 8 13 -5 13 -3 2 10 -10 13 -10 19 3 32 9 9 24 16 32 16 9 0
13 3 10 7 -4 3 1 15 10 25 16 18 16 18 -2 12 -12 -5 -16 -4 -12 3 4 6 22 10
41 9 31 -3 35 0 47 36 8 25 18 37 28 36 9 -2 16 4 16 12 0 14 -5 15 -48 3 -9
-3 -17 0 -17 6 0 7 5 9 10 6 6 -3 10 -2 10 3 0 11 -41 40 -62 44 -21 5 -58 59
-58 86 0 13 -4 21 -9 18 -5 -3 -11 13 -13 35 -3 33 0 44 19 59 13 10 23 23 23
28 0 6 10 18 23 27 12 10 17 19 11 21 -6 3 -9 25 -7 54 3 35 0 50 -9 50 -9 0
-9 3 0 12 10 10 15 10 22 -2 5 -8 10 -11 10 -7 0 4 -7 19 -16 32 -9 14 -13 25
-8 25 4 0 -3 11 -16 25 -18 19 -20 25 -8 25 13 0 15 11 11 63 -3 34 -9 64 -14
65 -6 3 -5 10 2 18 6 7 9 21 5 29 -3 8 0 15 7 15 9 0 11 13 9 40 -2 22 -8 40
-13 40 -5 0 -9 5 -9 11 0 6 8 9 18 7 15 -4 18 1 18 28 -1 19 -5 34 -10 34 -5
0 -6 19 -2 43 4 26 3 37 -3 28 -6 -10 -10 -10 -16 -1 -4 7 -3 15 2 19 28 19
23 71 -7 71 -20 0 -34 -26 -20 -35 6 -4 10 -12 10 -18 0 -8 -3 -7 -9 2 -5 7
-13 11 -19 7 -6 -4 -8 2 -5 14 3 11 0 20 -6 20 -9 0 -9 5 -1 21 10 17 8 21 -9
26 -23 6 -29 23 -8 23 6 1 1 10 -12 20 -13 11 -18 20 -12 20 6 0 11 4 11 9 0
5 -18 11 -40 15 -22 3 -40 11 -40 16 0 6 9 6 25 0 42 -16 30 13 -12 32 -28 11
-40 13 -45 4 -6 -8 -8 -8 -8 2 0 6 -11 12 -25 12 -14 0 -25 5 -25 10 0 6 -4
10 -10 10 -5 0 -6 -8 -3 -17 6 -16 5 -16 -10 -4 -9 7 -17 20 -17 27 0 8 -18
21 -39 30 -27 10 -38 20 -34 30 3 8 0 14 -6 14 -6 0 -11 -5 -11 -12 0 -6 -9
-3 -21 8 -18 16 -18 20 -5 29 16 12 13 40 -11 85 -7 14 -13 31 -13 38 0 6 -4
12 -10 12 -5 0 -10 -7 -10 -15 0 -8 -4 -15 -10 -15 -6 0 -5 10 2 25 6 14 13
23 16 20 6 -5 32 42 32 57 0 6 -7 8 -15 4 -8 -3 -15 -2 -15 3 0 5 12 12 28 17
20 5 23 8 10 11 -10 3 -18 9 -18 14 0 14 30 11 46 -5 12 -13 12 -16 -3 -25
-17 -10 -17 -10 0 -11 9 0 17 5 17 11 0 5 5 7 10 4 6 -4 7 -11 4 -17 -4 -7 -2
-8 5 -4 8 6 9 12 2 20 -6 7 -7 17 -3 21 4 5 2 5 -5 2 -17 -10 -22 16 -6 32 8
7 11 16 8 19 -3 4 -9 2 -13 -3 -11 -16 -32 -16 -32 -1 0 7 11 16 25 18 14 3
25 2 25 -3 0 -9 53 -4 70 6 5 3 10 10 10 16 0 14 -27 11 -34 -3 -3 -7 -3 -3 0
9 4 18 2 22 -10 17 -9 -3 -16 -14 -16 -23 0 -14 -2 -14 -10 -1 -6 9 -5 17 3
22 8 5 8 8 1 8 -6 0 -11 7 -11 15 0 9 5 14 11 12 6 -3 10 -10 9 -16 -4 -14 14
-14 23 0 5 8 9 8 14 -1 9 -15 30 -5 30 14 0 8 10 16 22 20 34 9 38 7 32 -8 -3
-8 -1 -17 5 -21 7 -4 11 4 11 20 0 15 8 37 18 49 15 20 19 21 31 9 10 -12 15
-12 21 -3 5 7 13 9 21 5 8 -5 11 -4 6 0 -4 5 0 17 10 27 15 17 15 18 0 18 -10
0 -17 4 -17 9 0 5 -11 9 -25 9 -23 0 -35 -21 -17 -31 4 -2 1 -2 -7 0 -8 2 -18
-2 -23 -9 -5 -9 -8 -6 -8 10 0 12 6 22 12 22 7 0 1 11 -12 24 -14 13 -28 21
-32 19 -5 -2 -8 1 -8 6 0 19 29 12 41 -10 6 -12 14 -18 18 -13 9 13 20 12 64
-9 45 -22 85 -15 53 9 -11 8 -14 14 -7 14 7 0 19 -7 27 -15 9 -9 11 -15 4 -15
-8 0 -8 -6 0 -21 14 -25 20 -21 24 17 2 15 8 30 15 32 15 5 14 -21 -1 -36 -9
-9 -8 -12 6 -12 15 0 17 6 14 30 -2 16 0 32 6 34 6 2 -4 5 -21 5 -19 1 -33 -4
-33 -11 0 -6 -2 -9 -5 -6 -3 3 -3 12 0 21 7 16 15 16 123 1 52 -7 67 -19 35
-27 -17 -4 -17 -5 0 -6 22 -1 22 -10 -1 -27 -15 -12 -13 -13 18 -7 19 3 40 10
47 15 6 5 17 8 25 7 7 -1 24 -1 37 0 21 1 22 3 10 18 -9 11 -1 8 20 -7 19 -13
31 -19 27 -12 -5 8 0 12 14 12 20 0 21 -1 4 -17 -10 -10 -21 -19 -26 -19 -4
-1 -12 -2 -18 -3 -5 0 -10 -5 -10 -9 0 -4 17 -8 38 -9 20 0 50 -4 66 -8 26 -7
29 -6 23 11 -5 15 -3 14 9 -3 9 -13 20 -23 25 -23 11 0 45 -33 52 -51 4 -10 6
-10 6 -1 1 6 10 12 22 12 11 0 18 -4 15 -8 -6 -11 86 -8 103 3 9 5 12 4 7 -3
-3 -5 0 -13 6 -15 10 -4 10 -8 -1 -15 -11 -8 -9 -11 8 -17 12 -3 20 -12 19
-18 -1 -7 6 -29 16 -49 13 -28 25 -38 42 -38 12 0 26 -5 30 -12 5 -8 0 -9 -14
-6 -12 4 -22 2 -22 -3 0 -5 7 -9 16 -9 8 0 12 -4 9 -10 -3 -5 3 -10 14 -10 12
0 21 5 21 10 0 6 5 10 10 10 6 0 10 -7 10 -15 0 -18 11 -19 29 -2 11 10 12 9
6 -1 -4 -9 0 -15 14 -19 12 -3 21 -9 21 -14 0 -5 5 -9 11 -9 6 0 8 8 5 18 -5
14 -3 13 10 -3 15 -20 15 -20 30 -1 10 15 17 17 25 9 8 -8 5 -14 -11 -23 -23
-12 -22 -13 16 -31 31 -14 34 -18 17 -19 -13 0 -23 5 -23 10 0 6 -5 10 -12 10
-6 0 -8 -3 -5 -6 3 -4 2 -15 -4 -26 -9 -17 -7 -18 25 -16 43 3 53 -6 32 -27
-18 -19 -21 -35 -5 -35 5 0 7 5 4 10 -6 9 7 14 27 11 4 0 5 6 2 14 -4 8 -1 15
5 15 6 0 11 7 11 15 0 9 7 18 15 21 21 8 19 34 -2 34 -15 0 -16 2 -3 10 23 15
30 12 30 -14 0 -44 12 -85 27 -90 8 -3 11 -1 8 4 -4 6 6 10 21 10 23 0 25 -2
13 -16 -8 -10 -24 -14 -45 -12 -23 3 -30 0 -27 -9 3 -7 14 -13 24 -13 10 0 19
-4 19 -8 0 -5 12 -15 26 -23 15 -7 30 -23 35 -34 6 -17 8 -17 8 -2 1 26 18 20
25 -9 5 -19 11 -24 24 -19 13 5 14 3 5 -6 -7 -7 -9 -19 -3 -34 13 -35 -3 -155
-21 -155 -5 0 -9 -10 -9 -22 0 -21 2 -20 16 7 25 48 27 44 22 -37 -3 -43 -2
-78 1 -78 3 0 6 -37 7 -83 0 -45 2 -152 4 -237 4 -162 -14 -325 -32 -298 -6 9
-7 5 -3 -10 4 -13 1 -29 -5 -37 -6 -8 -9 -19 -6 -24 4 -5 2 -12 -4 -16 -5 -3
-10 -17 -10 -30 0 -13 -4 -26 -8 -29 -5 -3 -7 -19 -4 -37 3 -22 1 -30 -7 -25
-7 5 -9 1 -5 -8 3 -9 2 -16 -4 -16 -6 0 -12 6 -15 13 -2 6 -7 9 -11 6 -4 -4 0
-14 9 -22 19 -20 19 -27 -1 -27 -13 0 -14 -3 -4 -15 7 -9 9 -26 5 -45 -8 -37
-14 -34 -25 12 -7 30 -8 30 -9 7 -1 -32 25 -99 39 -99 6 0 10 11 10 24 0 14 7
58 16 98 8 40 16 85 16 101 1 15 5 27 10 27 4 0 8 11 8 24 0 27 47 145 64 161
6 6 11 15 12 20 2 52 43 138 61 131 7 -3 13 -1 13 5 0 6 8 8 19 4 17 -5 18 -1
14 42 -4 45 -3 47 11 29 26 -32 23 -131 -5 -226 -10 -36 -23 -94 -29 -130 -18
-117 -31 -173 -53 -219 -11 -25 -23 -48 -26 -51 -13 -11 -75 -148 -82 -180
-18 -82 -35 -113 -65 -116 -56 -6 -56 15 -5 185 6 19 8 37 5 40 -9 10 -28 -32
-31 -67 -1 -18 -11 -47 -22 -65 -14 -22 -18 -43 -15 -68 4 -25 0 -41 -11 -53
-9 -9 -12 -16 -7 -16 6 0 8 -9 5 -20 -3 -11 -9 -20 -14 -20 -5 0 -9 -12 -10
-27 l-1 -28 -7 25 c-4 15 -10 20 -14 13 -4 -6 -4 -18 -1 -27 3 -9 -2 -28 -11
-42 -9 -15 -18 -38 -20 -52 -1 -14 -13 -33 -26 -43 -20 -15 -21 -19 -10 -33 9
-11 10 -16 2 -16 -6 0 -11 4 -11 9 0 5 -7 11 -14 14 -10 4 -13 1 -10 -7 3 -7
-2 -19 -10 -26 -19 -15 -11 -31 12 -24 12 4 11 2 -3 -7 -35 -22 -47 -38 -44
-62 4 -27 -9 -50 -23 -41 -6 4 -5 10 3 15 11 7 11 9 1 9 -7 0 -11 4 -7 9 3 5
1 12 -4 15 -5 3 -11 -1 -15 -9 -3 -8 -1 -15 4 -15 5 0 5 -12 0 -29 -4 -16 -6
-32 -2 -35 3 -3 -2 -6 -11 -6 -10 0 -17 -8 -17 -20 0 -11 -5 -20 -11 -20 -6 0
-8 7 -5 16 4 10 1 14 -6 11 -7 -2 -12 -11 -10 -19 3 -20 -29 -33 -41 -16 -6 9
-7 8 -3 -5 3 -10 6 -28 6 -38 0 -11 5 -17 10 -14 6 4 7 11 4 17 -4 7 -2 8 5 4
9 -6 9 -11 0 -22 -15 -18 -18 -18 -27 4 -5 14 -13 17 -32 11 -24 -7 -24 -7 -2
-8 21 -1 33 -21 12 -21 -15 0 -12 -30 3 -31 6 0 2 -5 -11 -11 -13 -7 -21 -17
-18 -25 3 -7 -1 -13 -11 -13 -13 0 -13 -3 -3 -15 10 -12 10 -15 -4 -15 -9 0
-16 -7 -16 -16 0 -14 -2 -15 -17 -3 -9 8 -14 9 -10 3 4 -7 0 -17 -8 -24 -8 -7
-15 -18 -15 -26 0 -17 -17 -27 -32 -18 -8 5 -6 10 8 15 14 5 8 8 -21 8 -33 1
-43 -4 -58 -27 -11 -15 -34 -38 -53 -52 -18 -14 -32 -30 -30 -36 2 -6 -6 -17
-17 -24 -22 -14 -27 -16 -49 -19 -9 -1 -7 -6 5 -15 25 -20 21 -26 -12 -16 -21
6 -31 5 -34 -3 -3 -7 -10 1 -16 17 -14 35 -25 29 -15 -8 3 -14 12 -26 19 -26
7 0 15 -6 18 -12 5 -15 128 43 159 74 10 10 23 18 29 18 6 0 8 9 4 23 -6 20
-5 21 8 5 14 -18 33 -25 23 -10 -5 9 38 52 52 52 4 0 32 27 62 60 29 34 89 98
132 143 43 45 81 92 84 104 3 13 11 20 16 17 6 -4 14 0 19 7 7 10 8 6 5 -11
-3 -14 -7 -56 -11 -93 -3 -37 -15 -91 -26 -118 -11 -28 -24 -84 -30 -125 -5
-41 -19 -100 -30 -132 -11 -31 -27 -93 -34 -137 -8 -44 -23 -129 -34 -190 -21
-112 -42 -281 -41 -324 0 -44 -16 -52 -67 -30 -24 10 -57 19 -73 19 -24 0 -27
-3 -22 -22 3 -13 11 -27 19 -31 7 -4 13 -17 13 -28 0 -11 4 -18 9 -15 4 3 7
-9 6 -28 -2 -18 1 -39 7 -47 6 -10 7 -7 3 10 -6 21 -5 22 8 10 10 -10 12 -21
7 -35 -5 -13 -4 -26 2 -32 8 -8 4 -9 -13 -5 -23 6 -24 6 -5 -12 15 -15 16 -20
5 -24 -8 -4 -14 -21 -14 -41 0 -19 -3 -39 -6 -45 -4 -5 -12 -35 -19 -65 -16
-72 -48 -168 -67 -203 -29 -55 -5 -37 28 20 18 32 40 66 50 75 16 16 17 16 15
-10 -2 -15 -8 -40 -15 -56 -6 -15 -16 -69 -21 -120 -5 -50 -12 -102 -16 -116
-3 -14 -6 -33 -6 -43 1 -9 -3 -15 -9 -12 -5 4 -9 -17 -10 -47 -1 -89 -5 -130
-22 -210 -14 -64 -28 -209 -28 -280 0 -10 -4 -20 -10 -23 -5 -4 -9 -19 -9 -36
0 -16 -4 -29 -9 -29 -6 0 -10 -8 -9 -17 0 -10 -7 -51 -16 -92 -10 -41 -14 -81
-11 -89 4 -11 2 -12 -8 -4 -11 9 -14 5 -15 -21 0 -17 -3 -62 -5 -100 -9 -132
16 -61 53 148 9 55 34 154 54 220 43 138 48 151 41 110 -13 -73 -34 -291 -40
-413 l-7 -132 1856 0 1856 0 0 1866 -1 1865 -21 -7 c-18 -5 -19 -4 -7 9 8 8
17 13 21 11 4 -3 7 954 8 2126 l0 2130 -4000 0 -4000 0 0 -4000z m6484 3311
c3 -5 0 -14 -8 -20 -10 -9 -15 -8 -19 3 -9 22 15 37 27 17z m-899 -21 c3 -5 1
-10 -4 -10 -6 0 -11 5 -11 10 0 6 2 10 4 10 3 0 8 -4 11 -10z m729 -5 c-4 -8
-7 -15 -9 -15 -2 0 -5 7 -9 15 -3 9 0 15 9 15 9 0 12 -6 9 -15z m66 0 c0 -2
-7 -5 -15 -9 -9 -3 -15 0 -15 9 0 9 6 12 15 9 8 -4 15 -7 15 -9z m-1790 -5
c-8 -5 -19 -10 -25 -10 -5 0 -3 5 5 10 8 5 20 10 25 10 6 0 3 -5 -5 -10z
m1307 -20 c-1 -11 -5 -20 -9 -20 -10 0 -10 4 -2 24 8 22 13 20 11 -4z m-210
-12 c-3 -8 -6 -5 -6 6 -1 11 2 17 5 13 3 -3 4 -12 1 -19z m702 18 c-2 -2 -15
-9 -29 -15 -24 -11 -24 -11 -6 3 16 13 49 24 35 12z m-226 -21 c-3 -9 -8 -14
-10 -11 -3 3 -2 9 2 15 9 16 15 13 8 -4z m272 5 c3 -5 1 -10 -4 -10 -6 0 -11
5 -11 10 0 6 2 10 4 10 3 0 8 -4 11 -10z m-348 -32 c-3 -8 -6 -5 -6 6 -1 11 2
17 5 13 3 -3 4 -12 1 -19z m-1287 2 c0 -5 -2 -10 -4 -10 -3 0 -8 5 -11 10 -3
6 -1 10 4 10 6 0 11 -4 11 -10z m1560 -6 c0 -2 -11 -3 -24 -2 -14 1 -23 5 -20
9 4 7 44 0 44 -7z m-997 -10 c-7 -3 -9 -13 -6 -22 4 -14 3 -14 -5 -2 -12 16
-7 30 11 29 9 0 9 -2 0 -5z m215 -18 c-7 -8 -15 -12 -17 -11 -5 6 10 25 20 25
5 0 4 -6 -3 -14z m-1688 -6 c0 -5 -5 -10 -11 -10 -5 0 -7 5 -4 10 3 6 8 10 11
10 2 0 4 -4 4 -10z m2270 6 c0 -2 -9 -6 -20 -9 -11 -3 -18 -1 -14 4 5 9 34 13
34 5z m165 -26 c3 -5 1 -10 -4 -10 -6 0 -11 5 -11 10 0 6 2 10 4 10 3 0 8 -4
11 -10z m-1412 -30 c3 -11 1 -18 -4 -14 -5 3 -9 12 -9 20 0 20 7 17 13 -6z
m990 3 c-7 -2 -19 -2 -25 0 -7 3 -2 5 12 5 14 0 19 -2 13 -5z m490 -18 c-3 -9
-8 -14 -10 -11 -3 3 -2 9 2 15 9 16 15 13 8 -4z m-326 -27 c-3 -7 -5 -2 -5 12
0 14 2 19 5 13 2 -7 2 -19 0 -25z m-592 12 c3 -6 -1 -7 -9 -4 -18 7 -21 14 -7
14 6 0 13 -4 16 -10z m522 -12 c-3 -8 -6 -5 -6 6 -1 11 2 17 5 13 3 -3 4 -12
1 -19z m-1057 2 c0 -5 -7 -7 -15 -4 -8 4 -15 8 -15 10 0 2 7 4 15 4 8 0 15 -4
15 -10z m1370 -40 c-8 -5 -19 -10 -25 -10 -5 0 -3 5 5 10 8 5 20 10 25 10 6 0
3 -5 -5 -10z m-1640 -10 c0 -5 -5 -10 -11 -10 -5 0 -7 5 -4 10 3 6 8 10 11 10
2 0 4 -4 4 -10z m1517 4 c-3 -3 -12 -4 -19 -1 -8 3 -5 6 6 6 11 1 17 -2 13 -5z
m353 -8 c0 -3 -4 -8 -10 -11 -5 -3 -10 -1 -10 4 0 6 5 11 10 11 6 0 10 -2 10
-4z m-395 -16 c-3 -5 -12 -10 -18 -10 -7 0 -6 4 3 10 19 12 23 12 15 0z
m-1422 -15 c-3 -9 -8 -14 -10 -11 -3 3 -2 9 2 15 9 16 15 13 8 -4z m180 0 c-3
-9 -8 -14 -10 -11 -3 3 -2 9 2 15 9 16 15 13 8 -4z m1262 -4 c-3 -6 -11 -11
-16 -11 -5 0 -4 6 3 14 14 16 24 13 13 -3z m-478 -6 c0 -8 -4 -12 -9 -9 -5 3
-6 10 -3 15 9 13 12 11 12 -6z m43 1 c0 -11 -19 -15 -25 -6 -3 5 1 10 9 10 9
0 16 -2 16 -4z m1085 -34 c-3 -3 -11 0 -18 7 -9 10 -8 11 6 5 10 -3 15 -9 12
-12z m-2265 -15 c10 -4 8 -6 -7 -6 -16 -1 -23 5 -23 17 0 10 3 13 8 6 4 -6 14
-14 22 -17z m587 7 c-3 -3 -12 -4 -19 -1 -8 3 -5 6 6 6 11 1 17 -2 13 -5z
m1100 0 c-3 -3 -12 -4 -19 -1 -8 3 -5 6 6 6 11 1 17 -2 13 -5z m-1237 -19 c0
-8 -2 -15 -4 -15 -2 0 -6 7 -10 15 -3 8 -1 15 4 15 6 0 10 -7 10 -15z m995 -5
c-2 -27 -15 -38 -15 -13 0 16 8 33 15 33 1 0 1 -9 0 -20z m952 14 c-3 -3 -12
-4 -19 -1 -8 3 -5 6 6 6 11 1 17 -2 13 -5z m-1767 -14 c0 -5 -2 -10 -4 -10 -3
0 -8 5 -11 10 -3 6 -1 10 4 10 6 0 11 -4 11 -10z m910 0 c0 -5 -4 -10 -10 -10
-5 0 -10 5 -10 10 0 6 5 10 10 10 6 0 10 -4 10 -10z m140 -11 c0 -6 -4 -7 -10
-4 -5 3 -10 11 -10 16 0 6 5 7 10 4 6 -3 10 -11 10 -16z m-1569 -7 c-7 -2 -18
1 -23 6 -8 8 -4 9 13 5 13 -4 18 -8 10 -11z m1049 -2 c0 -5 -5 -10 -11 -10 -5
0 -7 5 -4 10 3 6 8 10 11 10 2 0 4 -4 4 -10z m577 4 c-3 -3 -12 -4 -19 -1 -8
3 -5 6 6 6 11 1 17 -2 13 -5z m-547 -28 c0 -10 -7 -12 -22 -8 -21 5 -21 6 -2
13 10 4 20 8 22 8 1 1 2 -5 2 -13z m-340 -43 c-11 -17 -11 -17 -6 0 3 10 7 26
7 35 1 15 2 15 6 0 2 -10 -1 -25 -7 -35z m255 37 c-3 -5 -12 -10 -18 -10 -7 0
-6 4 3 10 19 12 23 12 15 0z m405 0 c0 -5 -2 -10 -4 -10 -3 0 -8 5 -11 10 -3
6 -1 10 4 10 6 0 11 -4 11 -10z m227 4 c-3 -3 -12 -4 -19 -1 -8 3 -5 6 6 6 11
1 17 -2 13 -5z m-1295 -11 c-6 -2 -9 -10 -6 -15 4 -7 2 -8 -5 -4 -13 9 -5 26
12 25 9 0 8 -2 -1 -6z m1336 -28 c-3 -3 -9 2 -12 12 -6 14 -5 15 5 6 7 -7 10
-15 7 -18z m257 15 c-3 -5 -12 -10 -18 -10 -7 0 -6 4 3 10 19 12 23 12 15 0z
m-1260 -18 c-3 -3 -11 0 -18 7 -9 10 -8 11 6 5 10 -3 15 -9 12 -12z m645 2 c0
-2 -7 -4 -15 -4 -8 0 -15 4 -15 10 0 5 7 7 15 4 8 -4 15 -8 15 -10z m140 -4
c0 -5 -5 -10 -11 -10 -5 0 -7 5 -4 10 3 6 8 10 11 10 2 0 4 -4 4 -10z m-910
-20 c0 -5 -5 -10 -11 -10 -5 0 -7 5 -4 10 3 6 8 10 11 10 2 0 4 -4 4 -10z
m595 -20 c3 -5 -1 -10 -10 -10 -9 0 -13 5 -10 10 3 6 8 10 10 10 2 0 7 -4 10
-10z m777 -5 c14 0 20 -15 6 -15 -9 0 -22 8 -29 17 -12 15 -12 16 1 8 8 -6 18
-10 22 -10z m-1572 -9 c-7 -7 -13 -7 -20 0 -6 6 -3 10 10 10 13 0 16 -4 10
-10z m840 -6 c0 -5 -2 -10 -4 -10 -3 0 -8 5 -11 10 -3 6 -1 10 4 10 6 0 11 -4
11 -10z m773 -34 c3 -8 0 -19 -7 -25 -10 -9 -12 -6 -8 14 5 29 8 31 15 11z
m-1428 -6 c3 -5 1 -10 -4 -10 -6 0 -11 5 -11 10 0 6 2 10 4 10 3 0 8 -4 11
-10z m405 -10 c0 -5 -5 -10 -11 -10 -5 0 -7 5 -4 10 3 6 8 10 11 10 2 0 4 -4
4 -10z m397 -15 c0 -8 -4 -15 -9 -15 -10 0 -11 14 -1 23 9 10 10 9 10 -8z
m507 0 c-4 -8 -8 -15 -10 -15 -2 0 -4 7 -4 15 0 8 4 15 10 15 5 0 7 -7 4 -15z
m-1206 -20 c-3 -3 -9 2 -12 12 -6 14 -5 15 5 6 7 -7 10 -15 7 -18z m939 19
c-3 -3 -12 -4 -19 -1 -8 3 -5 6 6 6 11 1 17 -2 13 -5z m323 -14 c0 -5 -5 -10
-11 -10 -5 0 -7 5 -4 10 3 6 8 10 11 10 2 0 4 -4 4 -10z m-1502 -7 c-10 -2
-26 -2 -35 0 -10 3 -2 5 17 5 19 0 27 -2 18 -5z m662 -7 c0 -3 -4 -8 -10 -11
-5 -3 -10 -1 -10 4 0 6 5 11 10 11 6 0 10 -2 10 -4z m-111 -40 c-3 -3 -11 5
-18 17 -13 21 -12 21 5 5 10 -10 16 -20 13 -22z m-544 14 c-3 -5 -3 -15 1 -21
4 -7 9 -8 13 -1 4 6 10 5 17 -3 9 -9 6 -12 -17 -13 -16 0 -27 4 -24 9 4 5 2 9
-4 9 -6 0 -8 7 -5 15 4 8 10 15 16 15 5 0 6 -4 3 -10z m72 -12 c-3 -8 -6 -5
-6 6 -1 11 2 17 5 13 3 -3 4 -12 1 -19z m811 -14 c2 -1 -9 -1 -24 -1 -18 0
-22 2 -13 8 10 6 11 9 2 9 -7 0 -13 5 -13 12 0 6 10 3 23 -8 12 -10 23 -19 25
-20z m22 30 c0 -8 -19 -13 -24 -6 -3 5 1 9 9 9 8 0 15 -2 15 -3z m220 -4 c0
-5 -7 -10 -16 -10 -9 0 -12 -5 -8 -12 4 -7 3 -8 -4 -4 -17 10 -15 24 6 29 9 3
18 5 20 6 1 0 2 -3 2 -9z m424 -4 c-10 -8 -21 -12 -24 -10 -5 6 21 24 34 24 6
0 1 -6 -10 -14z m-1163 -24 c-7 -2 -18 1 -23 6 -8 8 -4 9 13 5 13 -4 18 -8 10
-11z m794 8 c-3 -5 -12 -10 -18 -10 -7 0 -6 4 3 10 19 12 23 12 15 0z m-650
-20 c3 -5 1 -10 -4 -10 -6 0 -11 5 -11 10 0 6 2 10 4 10 3 0 8 -4 11 -10z
m185 -10 c0 -5 -2 -10 -4 -10 -3 0 -8 5 -11 10 -3 6 -1 10 4 10 6 0 11 -4 11
-10z m-673 -6 c-3 -3 -12 -4 -19 -1 -8 3 -5 6 6 6 11 1 17 -2 13 -5z m1133 -9
c0 -8 -2 -15 -4 -15 -2 0 -6 7 -10 15 -3 8 -1 15 4 15 6 0 10 -7 10 -15z m560
11 c0 -3 -4 -8 -10 -11 -5 -3 -10 -1 -10 4 0 6 5 11 10 11 6 0 10 -2 10 -4z
m-1700 -26 c0 -5 -2 -10 -4 -10 -3 0 -8 5 -11 10 -3 6 -1 10 4 10 6 0 11 -4
11 -10z m1210 -10 c0 -5 -5 -10 -11 -10 -5 0 -7 5 -4 10 3 6 8 10 11 10 2 0 4
-4 4 -10z m200 -21 c0 -6 -4 -7 -10 -4 -5 3 -10 11 -10 16 0 6 5 7 10 4 6 -3
10 -11 10 -16z m290 11 c0 -5 -2 -10 -4 -10 -3 0 -8 5 -11 10 -3 6 -1 10 4 10
6 0 11 -4 11 -10z m-1480 -50 c0 -5 -7 -7 -15 -4 -8 4 -15 8 -15 10 0 2 7 4
15 4 8 0 15 -4 15 -10z m697 4 c-3 -3 -12 -4 -19 -1 -8 3 -5 6 6 6 11 1 17 -2
13 -5z m-310 -26 c-3 -8 -6 -5 -6 6 -1 11 2 17 5 13 3 -3 4 -12 1 -19z m343 6
c0 -8 -5 -12 -10 -9 -6 4 -8 11 -5 16 9 14 15 11 15 -7z m-53 -16 c-3 -8 -6
-5 -6 6 -1 11 2 17 5 13 3 -3 4 -12 1 -19z m-229 -13 c-3 -3 -9 2 -12 12 -6
14 -5 15 5 6 7 -7 10 -15 7 -18z m1292 15 c0 -5 -2 -10 -4 -10 -3 0 -8 5 -11
10 -3 6 -1 10 4 10 6 0 11 -4 11 -10z m-790 -31 c0 -6 -4 -7 -10 -4 -5 3 -10
11 -10 16 0 6 5 7 10 4 6 -3 10 -11 10 -16z m-560 1 c0 -5 -5 -10 -11 -10 -5
0 -7 5 -4 10 3 6 8 10 11 10 2 0 4 -4 4 -10z m1275 1 c3 -5 2 -12 -3 -15 -5
-3 -9 1 -9 9 0 17 3 19 12 6z m-845 -21 c0 -5 -2 -10 -4 -10 -3 0 -8 5 -11 10
-3 6 -1 10 4 10 6 0 11 -4 11 -10z m-540 -4 c0 -2 -8 -10 -17 -17 -16 -13 -17
-12 -4 4 13 16 21 21 21 13z m154 -5 c4 -5 -3 -7 -14 -4 -23 6 -26 13 -6 13 8
0 17 -4 20 -9z m176 -1 c0 -5 -5 -10 -11 -10 -5 0 -7 5 -4 10 3 6 8 10 11 10
2 0 4 -4 4 -10z m511 -33 c-10 -9 -11 -8 -5 6 3 10 9 15 12 12 3 -3 0 -11 -7
-18z m279 15 c0 -5 -7 -9 -15 -9 -8 0 -12 4 -9 9 3 4 9 8 15 8 5 0 9 -4 9 -8z
m-580 -12 c-8 -5 -19 -10 -25 -10 -5 0 -3 5 5 10 8 5 20 10 25 10 6 0 3 -5 -5
-10z m520 0 c0 -5 -4 -10 -10 -10 -5 0 -10 5 -10 10 0 6 5 10 10 10 6 0 10 -4
10 -10z m-413 -42 c-3 -8 -6 -5 -6 6 -1 11 2 17 5 13 3 -3 4 -12 1 -19z m273
12 c0 -5 -2 -10 -4 -10 -3 0 -8 5 -11 10 -3 6 -1 10 4 10 6 0 11 -4 11 -10z
m-516 -16 c3 -8 2 -12 -4 -9 -6 3 -10 10 -10 16 0 14 7 11 14 -7z m213 -6 c-3
-8 -6 -5 -6 6 -1 11 2 17 5 13 3 -3 4 -12 1 -19z m373 7 c-6 -8 -8 -20 -4 -27
6 -10 3 -9 -9 1 -16 13 -16 14 0 27 24 18 28 17 13 -1z m660 5 c0 -5 -2 -10
-4 -10 -3 0 -8 5 -11 10 -3 6 -1 10 4 10 6 0 11 -4 11 -10z m-1418 -42 c-8 -8
-9 -4 -5 13 4 13 8 18 11 10 2 -7 -1 -18 -6 -23z m528 28 c0 -3 -4 -8 -10 -11
-5 -3 -10 -1 -10 4 0 6 5 11 10 11 6 0 10 -2 10 -4z m-100 -46 c8 -5 11 -10 5
-10 -5 0 -17 5 -25 10 -8 5 -10 10 -5 10 6 0 17 -5 25 -10z m-650 -19 c0 -5
-7 -11 -14 -14 -10 -4 -13 -1 -9 9 6 15 23 19 23 5z m525 -10 c3 -5 1 -12 -5
-16 -5 -3 -10 -2 -10 4 0 6 -8 8 -17 5 -15 -5 -16 -4 -3 5 19 13 27 14 35 2z
m562 3 c-3 -3 -12 -4 -19 -1 -8 3 -5 6 6 6 11 1 17 -2 13 -5z m60 -40 c-3 -3
-12 -4 -19 -1 -8 3 -5 6 6 6 11 1 17 -2 13 -5z m-417 -14 c0 -5 -2 -10 -4 -10
-3 0 -8 5 -11 10 -3 6 -1 10 4 10 6 0 11 -4 11 -10z m525 0 c3 -5 -1 -10 -10
-10 -9 0 -13 5 -10 10 3 6 8 10 10 10 2 0 7 -4 10 -10z m-618 -42 c-3 -8 -6
-5 -6 6 -1 11 2 17 5 13 3 -3 4 -12 1 -19z m133 12 c0 -5 -2 -10 -4 -10 -3 0
-8 5 -11 10 -3 6 -1 10 4 10 6 0 11 -4 11 -10z m-95 -10 c3 -5 1 -10 -4 -10
-6 0 -11 5 -11 10 0 6 2 10 4 10 3 0 8 -4 11 -10z m-435 -20 c0 -5 -5 -10 -11
-10 -5 0 -7 5 -4 10 3 6 8 10 11 10 2 0 4 -4 4 -10z m307 -12 c-3 -8 -6 -5 -6
6 -1 11 2 17 5 13 3 -3 4 -12 1 -19z m173 2 c0 -5 -4 -10 -10 -10 -5 0 -10 5
-10 10 0 6 5 10 10 10 6 0 10 -4 10 -10z m245 -20 c-3 -5 -12 -10 -18 -10 -7
0 -6 4 3 10 19 12 23 12 15 0z m-228 -32 c-3 -8 -6 -5 -6 6 -1 11 2 17 5 13 3
-3 4 -12 1 -19z m-20 -4 c-3 -3 -12 -4 -19 -1 -8 3 -5 6 6 6 11 1 17 -2 13 -5z
m46 -23 c-4 -15 -8 -19 -13 -10 -5 6 -3 18 3 24 16 17 17 14 10 -14z m-213 3
c0 -2 -7 -4 -15 -4 -8 0 -15 4 -15 10 0 5 7 7 15 4 8 -4 15 -8 15 -10z m555
-14 c3 -5 1 -10 -4 -10 -6 0 -11 5 -11 10 0 6 2 10 4 10 3 0 8 -4 11 -10z
m-417 -35 c-3 -3 -9 2 -12 12 -6 14 -5 15 5 6 7 -7 10 -15 7 -18z m312 15 c0
-5 -2 -10 -4 -10 -3 0 -8 5 -11 10 -3 6 -1 10 4 10 6 0 11 -4 11 -10z m490
-10 c0 -11 -2 -20 -4 -20 -2 0 -6 9 -9 20 -3 11 -1 20 4 20 5 0 9 -9 9 -20z
m-1385 -10 c3 -5 1 -10 -4 -10 -6 0 -11 5 -11 10 0 6 2 10 4 10 3 0 8 -4 11
-10z m335 -4 c0 -2 -7 -7 -16 -10 -8 -3 -12 -2 -9 4 6 10 25 14 25 6z m-474
-18 c4 -7 3 -8 -4 -4 -8 5 -12 -1 -12 -16 -1 -21 -1 -22 -11 -4 -9 14 -8 20 2
27 18 11 17 11 25 -3z m514 -28 c0 -5 -5 -10 -11 -10 -5 0 -7 5 -4 10 3 6 8
10 11 10 2 0 4 -4 4 -10z m80 0 c0 -5 -2 -10 -4 -10 -3 0 -8 5 -11 10 -3 6 -1
10 4 10 6 0 11 -4 11 -10z m840 -4 c0 -3 -4 -8 -10 -11 -5 -3 -10 -1 -10 4 0
6 5 11 10 11 6 0 10 -2 10 -4z m-770 -15 c0 -5 -7 -12 -16 -15 -14 -5 -15 -4
-4 9 14 17 20 19 20 6z m237 -33 c-3 -7 -5 -2 -5 12 0 14 2 19 5 13 2 -7 2
-19 0 -25z m-97 18 c0 -3 -4 -8 -10 -11 -5 -3 -10 -1 -10 4 0 6 5 11 10 11 6
0 10 -2 10 -4z m627 -43 c-3 -10 -5 -2 -5 17 0 19 2 27 5 18 2 -10 2 -26 0
-35z m-1387 27 c0 -5 -5 -10 -11 -10 -5 0 -7 5 -4 10 3 6 8 10 11 10 2 0 4 -4
4 -10z m308 -15 c-3 -3 -9 2 -12 12 -6 14 -5 15 5 6 7 -7 10 -15 7 -18z m305
-5 c3 -11 1 -20 -4 -20 -5 0 -9 9 -9 20 0 11 2 20 4 20 2 0 6 -9 9 -20z m-673
-14 c0 -14 -59 -50 -67 -42 -2 2 10 10 26 17 17 8 31 20 31 26 0 7 2 13 5 13
3 0 5 -6 5 -14z m292 -8 c-7 -7 -12 -8 -12 -2 0 14 12 26 19 19 2 -3 -1 -11
-7 -17z m2005 7 c0 -8 -4 -12 -9 -9 -5 3 -6 10 -3 15 9 13 12 11 12 -6z
m-1797 -5 c0 -5 -2 -10 -4 -10 -3 0 -8 5 -11 10 -3 6 -1 10 4 10 6 0 11 -4 11
-10z m977 -22 c-3 -8 -6 -5 -6 6 -1 11 2 17 5 13 3 -3 4 -12 1 -19z m140 0
c-3 -8 -6 -5 -6 6 -1 11 2 17 5 13 3 -3 4 -12 1 -19z m-470 -20 c-3 -7 -5 -2
-5 12 0 14 2 19 5 13 2 -7 2 -19 0 -25z m366 7 c-3 -9 -8 -14 -10 -11 -3 3 -2
9 2 15 9 16 15 13 8 -4z m37 5 c0 -5 -5 -10 -11 -10 -5 0 -7 5 -4 10 3 6 8 10
11 10 2 0 4 -4 4 -10z m-3110 -11 c12 -8 9 -9 -12 -5 -18 4 -28 2 -28 -5 0 -7
-3 -10 -6 -6 -8 8 5 27 19 27 7 0 19 -5 27 -11z m73 -9 c28 0 13 -13 -17 -15
-18 0 -22 4 -18 19 3 12 7 15 10 8 2 -6 13 -12 25 -12z m1857 -10 c8 -5 11
-10 5 -10 -5 0 -17 5 -25 10 -8 5 -10 10 -5 10 6 0 17 -5 25 -10z m80 -11 c0
-5 -4 -9 -10 -9 -5 0 -10 7 -10 16 0 8 5 12 10 9 6 -3 10 -10 10 -16z m904
-25 c3 -8 2 -12 -4 -9 -6 3 -10 10 -10 16 0 14 7 11 14 -7z m-2884 2 c0 -2 -9
-6 -20 -9 -11 -3 -20 -1 -20 4 0 5 9 9 20 9 11 0 20 -2 20 -4z m2219 -30 c-3
-3 -11 5 -18 17 -13 21 -12 21 5 5 10 -10 16 -20 13 -22z m412 1 c-10 -9 -11
-8 -5 6 3 10 9 15 12 12 3 -3 0 -11 -7 -18z m-436 3 c3 -6 -1 -7 -9 -4 -18 7
-21 14 -7 14 6 0 13 -4 16 -10z m-448 -22 c-3 -8 -6 -5 -6 6 -1 11 2 17 5 13
3 -3 4 -12 1 -19z m-2201 -4 c-22 -21 -20 -26 7 -20 12 3 16 3 8 0 -10 -5 -10
-8 -2 -14 8 -5 6 -14 -8 -31 -16 -19 -20 -21 -21 -7 0 9 6 18 13 21 6 2 8 8 4
13 -14 14 -35 -23 -31 -54 2 -15 1 -21 -2 -14 -3 6 -11 9 -17 5 -6 -4 -8 0 -4
10 4 11 2 14 -9 10 -7 -3 -14 -1 -14 5 0 5 9 12 20 15 11 3 20 13 20 22 0 15
-3 15 -17 5 -10 -7 -3 1 15 19 32 31 68 45 38 15z m2357 -9 c-3 -9 -8 -14 -10
-11 -3 3 -2 9 2 15 9 16 15 13 8 -4z m757 11 c0 -2 -9 -6 -20 -9 -11 -3 -18
-1 -14 4 5 9 34 13 34 5z m260 -31 c0 -5 -5 -3 -10 5 -5 8 -10 20 -10 25 0 6
5 3 10 -5 5 -8 10 -19 10 -25z m-2566 -1 c20 -8 21 -21 1 -21 -8 0 -12 4 -9 8
2 4 -2 10 -8 12 -7 3 -10 6 -6 6 3 1 13 -2 22 -5z m2831 -4 c-3 -5 -14 -10
-23 -9 -14 0 -13 2 3 9 27 11 27 11 20 0z m-1354 -27 c-12 -20 -14 -14 -5 12
4 9 9 14 11 11 3 -2 0 -13 -6 -23z m-2248 2 c-3 -9 -8 -14 -10 -11 -3 3 -2 9
2 15 9 16 15 13 8 -4z m2992 -3 c-3 -3 -11 0 -18 7 -9 10 -8 11 6 5 10 -3 15
-9 12 -12z m352 12 c-3 -3 -12 -4 -19 -1 -8 3 -5 6 6 6 11 1 17 -2 13 -5z
m288 -34 c3 -5 1 -10 -4 -10 -6 0 -11 5 -11 10 0 6 2 10 4 10 3 0 8 -4 11 -10z
m-985 -15 c-7 -8 -17 -15 -23 -15 -6 0 -2 7 9 15 25 19 30 19 14 0z m50 1 c0
-3 -4 -8 -10 -11 -5 -3 -10 -1 -10 4 0 6 5 11 10 11 6 0 10 -2 10 -4z m890
-18 c0 -5 -9 -4 -20 2 -11 6 -20 12 -20 14 0 2 9 2 20 -1 11 -3 20 -9 20 -15z
m564 -4 c3 -8 2 -12 -4 -9 -6 3 -10 10 -10 16 0 14 7 11 14 -7z m-1149 -4 c3
-6 -1 -7 -9 -4 -18 7 -21 14 -7 14 6 0 13 -4 16 -10z m-825 -21 c0 -6 -4 -7
-10 -4 -5 3 -10 11 -10 16 0 6 5 7 10 4 6 -3 10 -11 10 -16z m-148 -11 c-7 -7
-12 -8 -12 -2 0 14 12 26 19 19 2 -3 -1 -11 -7 -17z m1508 -8 c0 -4 -7 -13
-15 -20 -13 -11 -14 -10 -9 4 4 11 -1 22 -12 32 -17 13 -16 13 9 3 15 -7 27
-15 27 -19z m-2600 0 c0 -5 -9 -6 -20 -3 -11 3 -17 9 -15 14 7 10 35 1 35 -11z
m1487 14 c-3 -3 -12 -4 -19 -1 -8 3 -5 6 6 6 11 1 17 -2 13 -5z m-222 -14 c3
-5 1 -10 -4 -10 -6 0 -11 5 -11 10 0 6 2 10 4 10 3 0 8 -4 11 -10z m25 -25 c0
-8 -4 -15 -10 -15 -5 0 -7 7 -4 15 4 8 8 15 10 15 2 0 4 -7 4 -15z m885 -6
c-4 -5 -12 -9 -18 -8 -9 0 -8 2 1 6 6 2 9 10 6 15 -4 7 -2 8 5 4 6 -4 9 -12 6
-17z m-2161 -3 c7 3 13 -2 13 -11 0 -18 -6 -19 -29 -1 -10 7 -14 16 -11 20 4
4 9 3 11 -3 2 -5 9 -8 16 -5z m1609 -3 c-7 -3 -9 -12 -6 -21 4 -14 3 -14 -5
-3 -12 17 -4 43 11 34 8 -5 8 -8 0 -10z m667 9 c0 -5 -13 -7 -30 -4 -16 2 -30
6 -30 8 0 2 14 4 30 4 17 0 30 -4 30 -8z m780 -6 c0 -3 -4 -8 -10 -11 -5 -3
-10 -1 -10 4 0 6 5 11 10 11 6 0 10 -2 10 -4z m-1990 -40 c0 -2 -8 -10 -17
-17 -16 -13 -17 -12 -4 4 13 16 21 21 21 13z m1137 -18 c-3 -8 -6 -5 -6 6 -1
11 2 17 5 13 3 -3 4 -12 1 -19z m-3497 -19 c0 -6 -4 -7 -10 -4 -5 3 -10 11
-10 16 0 6 5 7 10 4 6 -3 10 -11 10 -16z m2370 7 c0 -2 -7 -7 -16 -10 -8 -3
-12 -2 -9 4 6 10 25 14 25 6z m1025 -14 c-3 -3 -11 0 -18 7 -9 10 -8 11 6 5
10 -3 15 -9 12 -12z m-45 -28 c0 -3 -7 -1 -15 6 -8 7 -15 17 -15 22 0 5 7 3
15 -6 8 -8 15 -18 15 -22z m-855 8 c-3 -3 -11 0 -18 7 -9 10 -8 11 6 5 10 -3
15 -9 12 -12z m288 -2 c3 -11 1 -23 -4 -26 -5 -3 -9 6 -9 20 0 31 6 34 13 6z
m1282 -8 c-3 -3 -11 0 -18 7 -9 10 -8 11 6 5 10 -3 15 -9 12 -12z m-3991 -4
c5 -10 7 -10 12 0 3 6 10 10 14 7 12 -8 -38 -55 -58 -55 -13 0 -12 3 6 16 22
15 22 41 0 28 -7 -4 -8 -2 -4 4 9 16 23 15 30 0z m1508 -20 c-5 -18 -7 -19
-10 -6 -2 9 -11 19 -20 21 -10 3 -6 5 10 6 22 1 25 -2 20 -21z m1048 -2 c0 -3
-4 -8 -10 -11 -5 -3 -10 -1 -10 4 0 6 5 11 10 11 6 0 10 -2 10 -4z m754 -12
c3 -8 2 -12 -4 -9 -6 3 -10 10 -10 16 0 14 7 11 14 -7z m49 -8 c4 -10 0 -12
-14 -9 -10 3 -16 9 -13 14 8 13 21 11 27 -5z m-514 -25 c-13 -11 -26 -17 -28
-15 -5 5 30 33 43 34 4 0 -2 -9 -15 -19z m1158 -3 c-3 -8 -6 -5 -6 6 -1 11 2
17 5 13 3 -3 4 -12 1 -19z m170 0 c-3 -8 -6 -5 -6 6 -1 11 2 17 5 13 3 -3 4
-12 1 -19z m-1437 -42 c0 -6 -7 -1 -15 10 -8 10 -15 23 -15 28 0 6 7 1 15 -10
8 -10 15 -23 15 -28z m1014 0 c-3 -9 -10 -13 -16 -10 -5 3 -4 12 3 20 15 18
22 13 13 -10z m-3844 -11 c0 -2 -10 -10 -22 -16 -21 -11 -22 -11 -9 4 13 16
31 23 31 12z m85 -5 c3 -6 -1 -7 -9 -4 -18 7 -21 14 -7 14 6 0 13 -4 16 -10z
m2945 0 c0 -5 -2 -10 -4 -10 -3 0 -8 5 -11 10 -3 6 -1 10 4 10 6 0 11 -4 11
-10z m783 -15 c-7 -21 -12 -19 -10 4 0 11 5 18 9 15 4 -3 5 -11 1 -19z m-3670
0 c4 -8 2 -17 -2 -20 -5 -2 -11 4 -14 15 -6 23 8 27 16 5z m3011 0 c3 -8 1
-15 -4 -15 -6 0 -10 7 -10 15 0 8 2 15 4 15 2 0 6 -7 10 -15z m736 5 c0 -5 -2
-10 -4 -10 -3 0 -8 5 -11 10 -3 6 -1 10 4 10 6 0 11 -4 11 -10z m-3837 -13 c3
-7 -3 -13 -14 -13 -13 0 -15 3 -7 13 6 7 12 13 13 13 2 0 5 -6 8 -13z m3877 3
c0 -5 -5 -10 -11 -10 -5 0 -7 5 -4 10 3 6 8 10 11 10 2 0 4 -4 4 -10z m-2187
-20 c4 0 5 5 2 10 -3 6 -2 10 4 10 17 0 24 -22 10 -31 -20 -12 -23 -12 -38 14
-10 17 -11 19 0 10 7 -7 17 -13 22 -13z m1600 0 c-3 -11 -7 -20 -9 -20 -2 0
-4 9 -4 20 0 11 4 20 9 20 5 0 7 -9 4 -20z m-952 -13 c-10 -9 -11 -8 -5 6 3
10 9 15 12 12 3 -3 0 -11 -7 -18z m-2266 -16 c-3 -6 -11 -11 -16 -11 -5 0 -4
6 3 14 14 16 24 13 13 -3z m3372 -3 c-3 -8 -6 -5 -6 6 -1 11 2 17 5 13 3 -3 4
-12 1 -19z m527 -4 c3 -8 2 -12 -4 -9 -6 3 -10 10 -10 16 0 14 7 11 14 -7z
m-1644 2 c0 -3 -4 -8 -10 -11 -5 -3 -10 -1 -10 4 0 6 5 11 10 11 6 0 10 -2 10
-4z m1007 -2 c-3 -3 -12 -4 -19 -1 -8 3 -5 6 6 6 11 1 17 -2 13 -5z m1083 -29
c0 -5 -5 -3 -10 5 -5 8 -10 20 -10 25 0 6 5 3 10 -5 5 -8 10 -19 10 -25z
m-1236 9 c3 -8 2 -12 -4 -9 -6 3 -10 10 -10 16 0 14 7 11 14 -7z m-884 -4 c0
-5 -5 -10 -11 -10 -5 0 -7 5 -4 10 3 6 8 10 11 10 2 0 4 -4 4 -10z m1930 -30
c0 -5 -2 -10 -4 -10 -3 0 -8 5 -11 10 -3 6 -1 10 4 10 6 0 11 -4 11 -10z m60
-10 c0 -5 -2 -10 -4 -10 -3 0 -8 5 -11 10 -3 6 -1 10 4 10 6 0 11 -4 11 -10z
m-1525 -10 c3 -5 1 -10 -4 -10 -6 0 -11 5 -11 10 0 6 2 10 4 10 3 0 8 -4 11
-10z m-418 -22 c-3 -8 -6 -5 -6 6 -1 11 2 17 5 13 3 -3 4 -12 1 -19z m1596 -5
c-7 -2 -19 -2 -25 0 -7 3 -2 5 12 5 14 0 19 -2 13 -5z m154 1 c-3 -3 -12 -4
-19 -1 -8 3 -5 6 6 6 11 1 17 -2 13 -5z m-1062 -14 c-3 -5 -12 -10 -18 -10 -7
0 -6 4 3 10 19 12 23 12 15 0z m1082 -12 c-3 -8 -6 -5 -6 6 -1 11 2 17 5 13 3
-3 4 -12 1 -19z m-376 -15 c-12 -20 -14 -14 -5 12 4 9 9 14 11 11 3 -2 0 -13
-6 -23z m107 -8 c-3 -3 -9 2 -12 12 -6 14 -5 15 5 6 7 -7 10 -15 7 -18z m152
11 c0 -3 -4 -8 -10 -11 -5 -3 -10 -1 -10 4 0 6 5 11 10 11 6 0 10 -2 10 -4z
m-1570 -16 c0 -5 -5 -10 -11 -10 -5 0 -7 5 -4 10 3 6 8 10 11 10 2 0 4 -4 4
-10z m-45 -10 c3 -5 1 -10 -4 -10 -6 0 -11 5 -11 10 0 6 2 10 4 10 3 0 8 -4
11 -10z m2045 -30 c0 -5 -2 -10 -4 -10 -3 0 -8 5 -11 10 -3 6 -1 10 4 10 6 0
11 -4 11 -10z m-450 -16 c0 -2 -7 -4 -15 -4 -8 0 -15 4 -15 10 0 5 7 7 15 4 8
-4 15 -8 15 -10z m-1450 -9 c0 -8 -8 -15 -17 -14 -11 0 -13 3 -5 6 6 2 10 9 6
14 -3 5 0 9 5 9 6 0 11 -7 11 -15z m230 -1 c0 -2 -7 -4 -15 -4 -8 0 -15 4 -15
10 0 5 7 7 15 4 8 -4 15 -8 15 -10z m185 -4 c-3 -5 -14 -10 -23 -10 -15 0 -15
2 -2 10 20 13 33 13 25 0z m765 -10 c0 -5 -5 -10 -11 -10 -5 0 -7 5 -4 10 3 6
8 10 11 10 2 0 4 -4 4 -10z m847 4 c-3 -3 -12 -4 -19 -1 -8 3 -5 6 6 6 11 1
17 -2 13 -5z m-1480 -26 c-3 -8 -6 -5 -6 6 -1 11 2 17 5 13 3 -3 4 -12 1 -19z
m113 2 c8 -5 11 -10 5 -10 -5 0 -17 5 -25 10 -8 5 -10 10 -5 10 6 0 17 -5 25
-10z m540 -4 c0 -3 -4 -8 -10 -11 -5 -3 -10 -1 -10 4 0 6 5 11 10 11 6 0 10
-2 10 -4z m-3764 -34 c3 -15 0 -20 -11 -16 -17 7 -21 48 -3 42 6 -2 13 -14 14
-26z m3491 22 c-3 -3 -12 -4 -19 -1 -8 3 -5 6 6 6 11 1 17 -2 13 -5z m868 -44
c-3 -6 -12 -10 -18 -10 -9 0 -8 3 1 8 7 5 10 17 7 28 -6 17 -6 18 5 1 6 -9 8
-22 5 -27z m-4264 19 c17 1 26 -4 26 -14 0 -12 -7 -14 -30 -9 -16 3 -36 7 -43
8 -8 1 -20 8 -27 15 -10 11 -7 12 18 6 17 -4 42 -7 56 -6z m3689 7 c0 -3 -4
-8 -10 -11 -5 -3 -10 -1 -10 4 0 6 5 11 10 11 6 0 10 -2 10 -4z m237 -18 c-3
-8 -6 -5 -6 6 -1 11 2 17 5 13 3 -3 4 -12 1 -19z m433 -2 c0 -3 -4 -8 -10 -11
-5 -3 -10 -1 -10 4 0 6 5 11 10 11 6 0 10 -2 10 -4z m-4280 -16 c12 -8 11 -10
-7 -10 -12 0 -25 5 -28 10 -8 13 15 13 35 0z m2517 4 c-3 -3 -12 -4 -19 -1 -8
3 -5 6 6 6 11 1 17 -2 13 -5z m173 2 c0 -3 -4 -8 -10 -11 -5 -3 -10 -1 -10 4
0 6 5 11 10 11 6 0 10 -2 10 -4z m-2650 -41 c0 -5 -5 -3 -10 5 -5 8 -10 20
-10 25 0 6 5 3 10 -5 5 -8 10 -19 10 -25z m2147 13 c-3 -8 -6 -5 -6 6 -1 11 2
17 5 13 3 -3 4 -12 1 -19z m953 18 c0 -3 -4 -8 -10 -11 -5 -3 -10 -1 -10 4 0
6 5 11 10 11 6 0 10 -2 10 -4z m820 0 c0 -2 -7 -6 -15 -10 -8 -3 -15 -1 -15 4
0 6 7 10 15 10 8 0 15 -2 15 -4z m-4025 -22 c51 -12 126 -54 119 -66 -5 -7 -2
-9 7 -6 8 3 23 0 34 -8 10 -8 14 -14 7 -14 -6 0 -9 -7 -6 -15 4 -8 1 -15 -5
-15 -6 0 -11 7 -11 16 0 12 -6 15 -24 10 -16 -4 -37 1 -61 15 -31 19 -63 28
-144 43 -8 2 -17 8 -18 13 -5 15 38 44 57 38 8 -2 29 -7 45 -11z m163 -16 c14
5 15 4 2 -10 -17 -18 -40 -13 -40 10 0 12 3 13 11 5 6 -6 19 -9 27 -5z m3302
2 c0 -5 -4 -10 -9 -10 -6 0 -13 5 -16 10 -3 6 1 10 9 10 9 0 16 -4 16 -10z
m-3235 -37 c13 -16 25 -34 25 -42 0 -7 6 -11 15 -7 10 4 15 -1 15 -15 0 -11 6
-34 13 -52 13 -30 12 -34 -16 -62 -17 -16 -27 -23 -23 -15 6 12 5 12 -6 -1 -7
-9 -30 -18 -50 -22 -30 -4 -38 -2 -43 12 -3 11 -14 16 -32 15 -16 -1 -28 -3
-28 -4 0 -1 -12 -3 -28 -5 -47 -6 -21 11 37 24 39 9 53 16 50 26 -3 7 0 16 6
20 7 4 13 -1 16 -12 4 -15 12 -18 40 -15 40 5 48 36 12 46 -34 9 -61 33 -53
47 6 8 10 7 17 -5 11 -20 45 -21 45 -1 0 8 -5 15 -11 15 -6 0 -4 4 4 10 12 8
12 10 -3 16 -9 3 -14 10 -11 15 3 5 -1 9 -9 9 -7 0 -14 7 -14 15 0 21 4 19 32
-12z m1950 17 c3 -5 1 -10 -4 -10 -6 0 -11 5 -11 10 0 6 2 10 4 10 3 0 8 -4
11 -10z m540 -10 c3 -5 1 -10 -4 -10 -6 0 -11 5 -11 10 0 6 2 10 4 10 3 0 8
-4 11 -10z m1675 0 c0 -5 -4 -10 -10 -10 -5 0 -10 5 -10 10 0 6 5 10 10 10 6
0 10 -4 10 -10z m-4185 -49 c-6 -5 -25 10 -25 20 0 5 6 4 14 -3 8 -7 12 -15
11 -17z m3280 19 c3 -6 -1 -7 -9 -4 -18 7 -21 14 -7 14 6 0 13 -4 16 -10z
m375 0 c0 -5 -2 -10 -4 -10 -3 0 -8 5 -11 10 -3 6 -1 10 4 10 6 0 11 -4 11
-10z m-425 -10 c3 -5 1 -10 -4 -10 -6 0 -11 5 -11 10 0 6 2 10 4 10 3 0 8 -4
11 -10z m-3000 -10 c3 -5 2 -10 -4 -10 -5 0 -13 5 -16 10 -3 6 -2 10 4 10 5 0
13 -4 16 -10z m-475 -21 c0 -5 -4 -9 -10 -9 -5 0 -10 7 -10 16 0 8 5 12 10 9
6 -3 10 -10 10 -16z m2264 5 c3 -8 2 -12 -4 -9 -6 3 -10 10 -10 16 0 14 7 11
14 -7z m-29 -14 c-3 -5 -12 -10 -18 -10 -7 0 -6 4 3 10 19 12 23 12 15 0z
m1205 5 c0 -2 -10 -9 -22 -15 -22 -11 -22 -10 -4 4 21 17 26 19 26 11z m-3293
-31 c32 -14 49 -40 18 -28 -8 4 -15 2 -15 -4 0 -5 -15 -13 -32 -17 -18 -4 -36
-9 -40 -10 -5 -1 -17 -3 -29 -4 -11 0 -17 -5 -14 -11 7 -12 3 -12 -19 -4 -9 3
-16 10 -16 15 0 4 6 6 13 3 9 -3 23 12 38 40 26 49 25 49 96 20z m4063 6 c0
-5 -7 -7 -15 -4 -8 4 -15 8 -15 10 0 2 7 4 15 4 8 0 15 -4 15 -10z m-2133 -52
c-3 -8 -6 -5 -6 6 -1 11 2 17 5 13 3 -3 4 -12 1 -19z m1393 -12 c0 -3 -4 -8
-10 -11 -5 -3 -10 -1 -10 4 0 6 5 11 10 11 6 0 10 -2 10 -4z m587 -28 c-3 -8
-6 -5 -6 6 -1 11 2 17 5 13 3 -3 4 -12 1 -19z m-4064 -28 c-3 -12 -8 -19 -11
-16 -5 6 5 36 12 36 2 0 2 -9 -1 -20z m3547 0 c0 -5 -2 -10 -4 -10 -3 0 -8 5
-11 10 -3 6 -1 10 4 10 6 0 11 -4 11 -10z m410 -20 c0 -5 -7 -7 -15 -4 -8 4
-15 8 -15 10 0 2 7 4 15 4 8 0 15 -4 15 -10z m377 -12 c-3 -8 -6 -5 -6 6 -1
11 2 17 5 13 3 -3 4 -12 1 -19z m-4250 6 c-3 -3 -12 -4 -19 -1 -8 3 -5 6 6 6
11 1 17 -2 13 -5z m159 -10 c-9 -8 -16 -19 -16 -24 0 -5 7 -16 16 -24 8 -9 11
-16 5 -16 -6 0 -11 -5 -11 -11 0 -5 5 -7 11 -3 14 8 1 -38 -14 -47 -5 -4 -7
-11 -3 -17 3 -6 2 -13 -4 -17 -5 -3 -10 1 -10 9 0 9 -8 16 -17 15 -10 0 -13
-3 -6 -5 7 -3 9 -12 6 -20 -3 -8 0 -14 6 -14 18 0 13 -17 -14 -46 -13 -14 -22
-31 -19 -36 3 -5 -6 -20 -20 -33 -14 -13 -26 -30 -26 -37 0 -9 3 -9 10 2 5 8
10 12 10 8 0 -3 3 -14 7 -24 4 -12 3 -15 -5 -10 -7 4 -12 1 -12 -8 0 -9 -5
-16 -11 -16 -8 0 -8 -5 1 -15 7 -8 16 -12 21 -9 5 3 9 0 9 -5 0 -14 -17 -14
-25 0 -4 6 -13 8 -21 5 -8 -3 -11 0 -8 8 3 8 1 17 -4 20 -12 7 -24 -34 -13
-48 12 -17 12 -67 0 -103 -8 -26 -7 -37 5 -55 9 -12 16 -29 15 -38 0 -10 -3
-9 -9 5 -8 19 -9 19 -9 -1 -1 -12 6 -24 14 -28 8 -3 15 -11 15 -18 0 -9 -3 -9
-10 2 -5 8 -12 11 -16 7 -4 -4 -2 -13 4 -19 17 -17 15 -28 -4 -28 -10 0 -12
-5 -7 -12 11 -19 12 -38 2 -38 -5 0 -9 -5 -9 -11 0 -5 5 -7 10 -4 6 3 10 2 10
-3 0 -13 -63 -13 -72 1 -4 6 -10 8 -15 4 -4 -5 -3 -11 3 -15 17 -11 12 -53 -5
-47 -8 3 -18 0 -23 -7 -6 -10 -10 -10 -17 2 -8 11 -3 18 17 27 19 9 21 11 5 7
-18 -4 -22 -1 -21 18 1 13 6 29 12 37 7 10 5 17 -8 26 -10 8 -15 18 -11 24 3
7 0 8 -9 5 -19 -7 -21 7 -4 24 7 7 8 12 3 12 -6 0 -3 5 5 10 11 7 12 10 2 10
-8 0 -16 -9 -19 -20 -8 -29 -33 -25 -33 5 0 16 -6 25 -15 25 -8 0 -15 2 -15 4
0 2 -3 11 -6 19 -3 9 3 16 15 20 17 4 21 13 20 49 -1 44 -3 43 -13 -4 -5 -21
-12 -28 -31 -28 -21 0 -25 6 -31 45 -3 25 -10 45 -15 45 -5 0 -9 9 -9 19 0 18
-25 36 -43 32 -5 -1 -6 3 -2 9 3 5 1 10 -4 10 -6 0 -11 7 -11 15 0 8 -5 15
-11 15 -5 0 -8 4 -4 9 3 5 1 12 -5 16 -6 4 -8 11 -5 16 7 11 -23 25 -33 15 -3
-4 0 -11 8 -16 12 -8 10 -10 -8 -10 -25 0 -27 24 -4 48 14 15 16 36 3 28 -5
-3 -11 1 -15 9 -3 8 0 15 7 15 7 1 19 16 28 34 12 26 12 33 2 29 -7 -3 -13
-12 -13 -21 0 -18 -13 -8 -16 13 -1 8 4 15 12 15 8 0 14 5 14 10 0 6 11 8 25
6 21 -4 28 0 36 21 5 15 8 32 5 40 -7 17 20 17 28 1 4 -7 4 -3 2 8 -3 21 14
27 30 11 4 -4 13 -2 21 4 10 9 17 8 28 -1 11 -9 15 -9 15 -1 0 8 11 10 35 5
23 -4 35 -2 35 5 0 6 7 11 16 11 10 0 14 7 12 22 -2 11 2 23 8 25 7 2 11 -4
10 -14 -1 -13 7 -19 27 -21 15 -2 27 0 27 5 0 4 19 9 43 10 31 2 37 0 22 -7
-19 -8 -19 -9 3 -9 12 -1 22 3 22 8 0 6 12 6 29 1 26 -7 29 -6 28 11 -1 12 -5
15 -11 9 -6 -6 -15 -10 -20 -10 -22 1 29 30 52 30 21 0 22 -1 8 -16z m44 7 c0
-6 -4 -13 -10 -16 -5 -3 -10 1 -10 9 0 9 5 16 10 16 6 0 10 -4 10 -9z m3807
-33 c-3 -8 -6 -5 -6 6 -1 11 2 17 5 13 3 -3 4 -12 1 -19z m-4147 -13 c0 -8 -4
-15 -10 -15 -5 0 -7 7 -4 15 4 8 8 15 10 15 2 0 4 -7 4 -15z m4161 -8 c-10 -9
-11 -8 -5 6 3 10 9 15 12 12 3 -3 0 -11 -7 -18z m-721 -7 c0 -5 -2 -10 -4 -10
-3 0 -8 5 -11 10 -3 6 -1 10 4 10 6 0 11 -4 11 -10z m-2910 -14 c0 -3 -4 -8
-10 -11 -5 -3 -10 -1 -10 4 0 6 5 11 10 11 6 0 10 -2 10 -4z m2675 -6 c3 -5 1
-10 -4 -10 -6 0 -11 5 -11 10 0 6 2 10 4 10 3 0 8 -4 11 -10z m-1278 -42 c-3
-7 -5 -2 -5 12 0 14 2 19 5 13 2 -7 2 -19 0 -25z m-2147 -1 c0 -7 -9 -13 -20
-14 -16 -1 -17 1 -7 12 15 18 27 19 27 2z m-58 -57 c-5 -32 -14 -33 -18 -2 -2
12 9 29 22 32 0 0 -1 -14 -4 -30z m4868 16 c0 -3 -4 -8 -10 -11 -5 -3 -10 -1
-10 4 0 6 5 11 10 11 6 0 10 -2 10 -4z m-481 -19 c-2 -1 -13 -9 -24 -17 -19
-14 -19 -14 -6 3 7 9 18 17 24 17 6 0 8 -1 6 -3z m-752 -29 c-3 -8 -6 -5 -6 6
-1 11 2 17 5 13 3 -3 4 -12 1 -19z m-196 -11 c-10 -9 -11 -8 -5 6 3 10 9 15
12 12 3 -3 0 -11 -7 -18z m747 -42 c-3 -3 -9 2 -12 12 -6 14 -5 15 5 6 7 -7
10 -15 7 -18z m376 -30 c3 -8 1 -15 -4 -15 -6 0 -10 7 -10 15 0 8 2 15 4 15 2
0 6 -7 10 -15z m-4054 -36 c0 -6 -4 -7 -10 -4 -5 3 -10 11 -10 16 0 6 5 7 10
4 6 -3 10 -11 10 -16z m-480 -54 c0 -5 -5 -3 -10 5 -5 8 -10 20 -10 25 0 6 5
3 10 -5 5 -8 10 -19 10 -25z m485 25 c3 -5 1 -10 -4 -10 -6 0 -11 5 -11 10 0
6 2 10 4 10 3 0 8 -4 11 -10z m299 -25 c-4 -8 -8 -15 -10 -15 -2 0 -4 7 -4 15
0 8 4 15 10 15 5 0 7 -7 4 -15z m2823 -87 c-3 -7 -5 -2 -5 12 0 14 2 19 5 13
2 -7 2 -19 0 -25z m-3172 -6 c3 -15 0 -19 -12 -15 -12 5 -12 7 -1 14 10 7 11
9 0 9 -7 0 -10 5 -7 11 9 13 15 7 20 -19z m3228 8 c-3 -12 -8 -19 -11 -16 -5
6 5 36 12 36 2 0 2 -9 -1 -20z m-3242 -70 c-5 -27 -18 -41 -22 -25 -4 16 12
65 20 61 5 -3 6 -19 2 -36z m-224 -105 c0 -8 -4 -15 -9 -15 -4 0 -8 7 -8 15 0
8 4 15 8 15 5 0 9 -7 9 -15z m596 -35 c-3 -11 -7 -20 -9 -20 -2 0 -4 9 -4 20
0 11 4 20 9 20 5 0 7 -9 4 -20z m-591 -42 c-8 -8 -9 -4 -5 13 4 13 8 18 11 10
2 -7 -1 -18 -6 -23z m25 10 c-3 -8 -6 -5 -6 6 -1 11 2 17 5 13 3 -3 4 -12 1
-19z m218 -16 c-6 -7 -34 11 -29 19 3 5 11 3 19 -4 7 -6 12 -13 10 -15z m3360
8 c3 -5 1 -10 -4 -10 -6 0 -11 5 -11 10 0 6 2 10 4 10 3 0 8 -4 11 -10z
m-3542 -20 c-5 -19 -23 -29 -23 -12 0 7 20 32 26 32 1 0 0 -9 -3 -20z m177 -9
c0 -4 -7 -8 -15 -8 -8 0 -15 6 -15 13 0 8 6 11 15 8 8 -4 15 -9 15 -13z m-70
-50 c0 -3 -7 -15 -15 -25 -15 -19 -15 -19 -13 5 1 14 8 26 15 26 7 0 13 -3 13
-6z m80 -31 c0 -5 -5 -10 -11 -10 -5 0 -7 5 -4 10 3 6 8 10 11 10 2 0 4 -4 4
-10z m330 6 c0 -3 -4 -8 -10 -11 -5 -3 -10 -1 -10 4 0 6 5 11 10 11 6 0 10 -2
10 -4z m-50 -52 c0 -8 -5 -12 -10 -9 -6 4 -8 11 -5 16 9 14 15 11 15 -7z
m-105 -144 c3 -5 1 -10 -4 -10 -6 0 -11 5 -11 10 0 6 2 10 4 10 3 0 8 -4 11
-10z m-260 -80 c3 -5 1 -10 -4 -10 -6 0 -11 5 -11 10 0 6 2 10 4 10 3 0 8 -4
11 -10z m622 -6 c-3 -3 -12 -4 -19 -1 -8 3 -5 6 6 6 11 1 17 -2 13 -5z m67
-26 c-3 -4 -9 -8 -15 -8 -5 0 -9 4 -9 8 0 5 7 9 15 9 8 0 12 -4 9 -9z m-694
-2 c0 -2 -8 -10 -17 -17 -16 -13 -17 -12 -4 4 13 16 21 21 21 13z m500 -86 c0
-5 -9 -6 -20 -3 -11 3 -20 9 -20 13 0 5 9 6 20 3 11 -3 20 -9 20 -13z m395 10
c-3 -5 -14 -10 -23 -10 -15 0 -15 2 -2 10 20 13 33 13 25 0z m-910 -19 c3 -5
2 -12 -3 -15 -5 -3 -9 1 -9 9 0 17 3 19 12 6z m358 -7 c-3 -9 -9 -12 -12 -7
-3 4 -10 11 -15 16 -5 4 0 7 12 7 15 0 20 -4 15 -16z m3234 -76 c-3 -8 -6 -5
-6 6 -1 11 2 17 5 13 3 -3 4 -12 1 -19z m-2192 -18 c3 -5 -1 -10 -10 -10 -9 0
-13 5 -10 10 3 6 8 10 10 10 2 0 7 -4 10 -10z m-1170 -190 c3 -5 1 -10 -4 -10
-6 0 -11 5 -11 10 0 6 2 10 4 10 3 0 8 -4 11 -10z m-18 -72 c-3 -8 -6 -5 -6 6
-1 11 2 17 5 13 3 -3 4 -12 1 -19z m1073 8 c0 -3 -4 -8 -10 -11 -5 -3 -10 -1
-10 4 0 6 5 11 10 11 6 0 10 -2 10 -4z m-976 -55 c3 -5 -10 -9 -29 -8 -19 1
-35 5 -35 9 0 11 57 10 64 -1z m911 -1 c-3 -5 -12 -10 -18 -10 -7 0 -6 4 3 10
19 12 23 12 15 0z m-955 -40 c-11 -11 -22 -20 -25 -20 -3 0 -1 9 5 20 6 11 17
20 25 20 11 0 10 -5 -5 -20z m-32 -45 c-3 -3 -9 2 -12 12 -6 14 -5 15 5 6 7
-7 10 -15 7 -18z m7 -5 c9 15 25 12 19 -4 -8 -21 -36 -29 -46 -14 -13 21 -9
31 6 19 10 -8 16 -9 21 -1z m0 -50 c3 -5 1 -10 -4 -10 -6 0 -11 5 -11 10 0 6
2 10 4 10 3 0 8 -4 11 -10z m845 -20 c0 -5 -4 -10 -10 -10 -5 0 -10 5 -10 10
0 6 5 10 10 10 6 0 10 -4 10 -10z m-87 -52 c-29 -8 -43 -3 -42 15 0 9 2 9 6 0
7 -18 23 -16 23 2 0 13 3 13 20 3 19 -12 19 -13 -7 -20z m17 -13 c0 -2 -10
-10 -22 -16 -21 -11 -22 -11 -9 4 13 16 31 23 31 12z m-67 -20 c-3 -9 -8 -14
-10 -11 -3 3 -2 9 2 15 9 16 15 13 8 -4z m-26 -37 c-3 -8 -6 -5 -6 6 -1 11 2
17 5 13 3 -3 4 -12 1 -19z m-507 -28 c0 -5 -8 -10 -17 -10 -15 0 -16 2 -3 10
19 12 20 12 20 0z m195 -50 c3 -5 2 -10 -4 -10 -5 0 -13 5 -16 10 -3 6 -2 10
4 10 5 0 13 -4 16 -10z m-935 -80 c0 -5 -4 -10 -10 -10 -5 0 -10 5 -10 10 0 6
5 10 10 10 6 0 10 -4 10 -10z m2497 4 c-3 -3 -12 -4 -19 -1 -8 3 -5 6 6 6 11
1 17 -2 13 -5z m-1697 -128 c0 -3 -4 -8 -10 -11 -5 -3 -10 -1 -10 4 0 6 5 11
10 11 6 0 10 -2 10 -4z m-180 -50 c0 -3 -4 -8 -10 -11 -5 -3 -10 -1 -10 4 0 6
5 11 10 11 6 0 10 -2 10 -4z m-85 -46 c-3 -5 -11 -10 -16 -10 -6 0 -7 5 -4 10
3 6 11 10 16 10 6 0 7 -4 4 -10z m95 -10 c0 -11 -4 -20 -8 -20 -4 0 -8 9 -9
20 -1 11 2 20 8 20 5 0 9 -9 9 -20z m-69 -9 c-8 -5 -12 -18 -8 -30 3 -12 2
-21 -3 -21 -9 0 -20 47 -12 55 3 3 12 5 21 5 13 0 14 -2 2 -9z m-106 -50 c-6
-5 -25 10 -25 20 0 5 6 4 14 -3 8 -7 12 -15 11 -17z m75 13 c0 -8 -4 -13 -9
-10 -5 3 -12 -4 -16 -17 -4 -15 -8 -18 -12 -8 -5 11 -7 11 -14 0 -6 -10 -8 -6
-7 12 1 17 7 25 15 22 7 -3 13 0 13 6 0 6 7 11 15 11 8 0 15 -7 15 -16z m3907
-610 c-3 -3 -12 -4 -19 -1 -8 3 -5 6 6 6 11 1 17 -2 13 -5z m-3015 -87 c-6 -7
-9 -23 -5 -36 4 -16 0 -27 -16 -37 -16 -11 -20 -22 -16 -42 5 -26 5 -26 -5 -4
-13 30 -3 72 15 66 9 -4 12 0 8 14 -5 21 14 68 24 58 3 -3 1 -11 -5 -19z
m2869 -984 c13 -16 12 -17 -3 -4 -17 13 -22 21 -14 21 2 0 10 -8 17 -17z"/>
<path d="M3500 4516 c0 -2 7 -7 16 -10 8 -3 12 -2 9 4 -6 10 -25 14 -25 6z"/>
<path d="M3118 4443 c6 -2 18 -2 25 0 6 3 1 5 -13 5 -14 0 -19 -2 -12 -5z"/>
<path d="M3525 4440 c3 -5 10 -10 16 -10 5 0 9 5 9 10 0 6 -7 10 -16 10 -8 0
-12 -4 -9 -10z"/>
<path d="M3110 4420 c-8 -5 -10 -10 -5 -10 6 0 17 5 25 10 8 5 11 10 5 10 -5
0 -17 -5 -25 -10z"/>
<path d="M3437 4383 c-11 -11 -8 -20 8 -20 8 0 15 6 15 14 0 14 -12 17 -23 6z"/>
<path d="M3418 4343 c6 -2 18 -2 25 0 6 3 1 5 -13 5 -14 0 -19 -2 -12 -5z"/>
<path d="M3150 4112 c0 -12 19 -26 26 -19 2 2 -2 10 -11 17 -9 8 -15 8 -15 2z"/>
<path d="M3195 4052 c-13 -9 -18 -42 -7 -42 5 0 12 10 15 22 7 26 5 30 -8 20z"/>
<path d="M3242 3995 c0 -16 2 -22 5 -12 2 9 2 23 0 30 -3 6 -5 -1 -5 -18z"/>
<path d="M3210 3960 c0 -5 5 -10 10 -10 6 0 10 5 10 10 0 6 -4 10 -10 10 -5 0
-10 -4 -10 -10z"/>
<path d="M3241 3924 c0 -11 3 -14 6 -6 3 7 2 16 -1 19 -3 4 -6 -2 -5 -13z"/>
<path d="M3365 3910 c-3 -5 -1 -10 4 -10 6 0 11 5 11 10 0 6 -2 10 -4 10 -3 0
-8 -4 -11 -10z"/>
<path d="M3870 5774 c0 -16 2 -17 10 -4 6 10 10 11 10 3 0 -7 7 -13 15 -13 8
0 15 5 15 10 0 6 -4 10 -9 10 -5 0 -16 3 -25 6 -11 4 -16 0 -16 -12z"/>
<path d="M4020 5730 c0 -5 7 -10 15 -10 8 0 15 5 15 10 0 6 -7 10 -15 10 -8 0
-15 -4 -15 -10z"/>
<path d="M4070 5720 c0 -5 5 -10 10 -10 6 0 10 5 10 10 0 6 -4 10 -10 10 -5 0
-10 -4 -10 -10z"/>
<path d="M3640 5660 c0 -5 4 -10 9 -10 6 0 13 5 16 10 3 6 -1 10 -9 10 -9 0
-16 -4 -16 -10z"/>
<path d="M3576 5604 c-3 -9 -4 -20 0 -25 7 -13 44 -11 44 2 0 6 -9 8 -21 4
-18 -6 -20 -4 -14 14 7 24 0 29 -9 5z"/>
<path d="M4411 5584 c0 -11 3 -14 6 -6 3 7 2 16 -1 19 -3 4 -6 -2 -5 -13z"/>
<path d="M3464 5509 c-9 -15 18 -40 33 -31 9 6 8 12 -7 25 -13 10 -22 13 -26
6z"/>
<path d="M3508 5513 c7 -3 16 -2 19 1 4 3 -2 6 -13 5 -11 0 -14 -3 -6 -6z"/>
<path d="M3405 5420 c-3 -5 -1 -10 4 -10 6 0 11 5 11 10 0 6 -2 10 -4 10 -3 0
-8 -4 -11 -10z"/>
<path d="M4716 5371 c-12 -5 -15 -10 -9 -14 6 -4 16 0 23 8 14 17 13 17 -14 6z"/>
<path d="M4717 5329 c7 -7 15 -10 18 -7 3 3 -2 9 -12 12 -14 6 -15 5 -6 -5z"/>
<path d="M4877 5313 c-13 -12 -7 -23 11 -22 10 0 12 3 4 6 -6 2 -10 9 -6 14 6
10 0 12 -9 2z"/>
<path d="M3497 5273 c-4 -3 -7 -11 -7 -17 0 -6 5 -5 12 2 6 6 9 14 7 17 -3 3
-9 2 -12 -2z"/>
<path d="M3425 5220 c3 -5 8 -10 11 -10 2 0 4 5 4 10 0 6 -5 10 -11 10 -5 0
-7 -4 -4 -10z"/>
<path d="M3510 5216 c0 -8 4 -17 9 -20 5 -4 7 3 4 14 -6 23 -13 26 -13 6z"/>
<path d="M4623 5087 c-3 -5 -17 -7 -31 -6 -15 1 -35 -2 -45 -6 -11 -4 -23 -3
-30 4 -6 6 -22 11 -36 11 -24 0 -24 0 -5 -16 18 -15 18 -15 -6 -9 -48 13 -99
13 -104 0 -2 -7 -16 -15 -30 -17 -22 -4 -24 -3 -15 13 9 17 7 18 -16 7 -27
-12 -32 -23 -12 -32 6 -3 1 -4 -13 -3 -14 1 -24 8 -22 15 2 14 -44 17 -53 3
-3 -5 -18 -12 -34 -16 -39 -8 -85 -58 -78 -84 3 -12 2 -21 -3 -21 -4 0 -12
-18 -18 -41 -8 -33 -8 -41 4 -46 8 -3 17 -3 21 0 3 3 12 0 20 -8 11 -11 19
-12 34 -4 27 14 81 7 87 -11 3 -11 2 -12 -8 -4 -12 12 -50 7 -50 -6 0 -19 13
-39 21 -34 5 3 9 -1 9 -10 0 -8 -4 -16 -10 -18 -5 -1 -11 -14 -12 -28 -3 -21
1 -25 22 -25 17 0 26 -6 28 -20 5 -23 33 -46 46 -38 5 4 6 1 2 -5 -9 -15 -54
5 -58 25 -3 12 -6 12 -23 -1 -19 -14 -19 -15 19 -31 57 -24 130 -29 146 -10
10 12 10 15 -3 15 -15 0 -30 34 -19 44 3 3 18 6 33 6 22 0 29 -6 34 -28 13
-61 117 -95 173 -56 26 18 55 71 47 84 -8 13 -2 13 30 -2 14 -6 25 -15 25 -20
0 -4 11 -8 24 -8 14 0 27 -4 30 -9 4 -5 -3 -7 -14 -4 -11 3 -20 0 -20 -6 0 -6
6 -11 13 -11 8 0 7 -4 -3 -10 -13 -9 -13 -10 0 -10 9 0 15 -10 15 -25 l0 -25
-16 21 c-9 12 -21 19 -28 15 -13 -9 -15 -36 -1 -36 5 0 7 7 4 15 -4 8 -1 15 5
15 6 0 10 -3 10 -7 -1 -5 -1 -18 0 -30 1 -19 5 -22 30 -17 16 4 32 1 35 -5 10
-16 26 -4 19 14 -3 8 0 15 7 15 7 0 10 7 6 15 -4 13 -2 13 14 5 25 -13 30 -13
30 5 0 9 6 12 15 9 8 -4 15 -2 15 2 -1 13 -48 64 -59 64 -6 0 -14 6 -18 13 -8
11 -32 24 -113 59 -54 23 -147 40 -194 36 -22 -3 -32 -3 -22 -1 16 4 17 7 5
14 -12 7 -12 9 1 10 62 3 76 19 19 20 -96 3 -140 1 -167 -9 -51 -19 -63 -22
-57 -13 3 5 21 15 40 21 38 12 42 19 23 38 -16 16 -8 15 35 -3 45 -19 58 -19
33 0 -14 11 -16 15 -5 15 53 1 269 29 282 37 4 2 12 1 18 -3 8 -4 7 -9 -2 -16
-9 -6 -2 -7 21 -2 19 3 40 11 47 16 7 6 14 5 18 -3 4 -6 1 -15 -6 -20 -25 -15
-3 -19 27 -5 53 26 74 29 74 12 0 -9 -4 -16 -10 -16 -5 0 -10 -4 -10 -9 0 -5
8 -8 18 -7 14 1 16 -6 14 -34 -2 -29 -1 -32 8 -17 6 9 16 15 22 11 6 -4 5 -10
-3 -15 -11 -7 -10 -9 4 -9 9 0 17 -7 17 -15 0 -8 5 -15 10 -15 6 0 10 -7 10
-15 0 -8 7 -15 15 -15 8 0 15 5 15 10 0 6 -4 10 -10 10 -5 0 -10 5 -10 10 0 6
9 10 20 10 25 0 25 11 1 37 -11 12 -17 24 -14 27 7 7 -27 77 -42 88 -5 4 -6
10 -2 14 4 4 -2 13 -12 20 -22 16 -35 78 -14 70 7 -3 13 -2 13 3 0 5 -8 12
-17 15 -46 17 -86 43 -72 48 8 3 12 8 9 11 -8 9 -211 13 -217 4z m-183 -27 c0
-5 -4 -10 -10 -10 -5 0 -10 5 -10 10 0 6 5 10 10 10 6 0 10 -4 10 -10z m-330
-149 c0 -6 -4 -13 -10 -16 -5 -3 -10 1 -10 9 0 9 5 16 10 16 6 0 10 -4 10 -9z
m158 -78 c-13 -16 -15 -16 -21 1 -4 10 0 14 13 13 14 -1 16 -4 8 -14z m21 -22
c-13 -11 -26 -17 -28 -15 -5 5 30 33 43 34 4 0 -2 -9 -15 -19z m-79 -91 c0 -5
-5 -10 -11 -10 -5 0 -7 5 -4 10 3 6 8 10 11 10 2 0 4 -4 4 -10z m60 -31 c0
-18 -18 -9 -23 12 -4 16 -3 18 9 8 8 -6 14 -15 14 -20z m283 6 c4 -8 2 -17 -3
-20 -6 -4 -10 -4 -10 -1 0 2 -3 11 -6 20 -3 9 -2 16 4 16 5 0 12 -7 15 -15z"/>
<path d="M4986 4907 c3 -10 9 -15 12 -12 3 3 0 11 -7 18 -10 9 -11 8 -5 -6z"/>
<path d="M5030 4900 c20 -13 33 -13 25 0 -3 6 -14 10 -23 10 -15 0 -15 -2 -2
-10z"/>
<path d="M4845 4810 c-3 -5 -2 -10 4 -10 5 0 13 5 16 10 3 6 2 10 -4 10 -5 0
-13 -4 -16 -10z"/>
<path d="M4628 4783 c7 -3 16 -2 19 1 4 3 -2 6 -13 5 -11 0 -14 -3 -6 -6z"/>
<path d="M4738 4756 c17 -8 43 -27 57 -42 20 -21 28 -25 37 -16 9 9 8 12 -7
12 -10 0 -15 3 -12 6 10 11 -36 41 -73 48 l-35 7 33 -15z"/>
<path d="M5051 4714 c0 -11 3 -14 6 -6 3 7 2 16 -1 19 -3 4 -6 -2 -5 -13z"/>
<path d="M4910 4711 c0 -5 5 -13 10 -16 6 -3 10 -2 10 4 0 5 -4 13 -10 16 -5
3 -10 2 -10 -4z"/>
<path d="M4346 4583 c-10 -10 -16 -13 -13 -8 3 6 -5 11 -18 11 -13 1 -26 -4
-29 -12 -3 -8 0 -11 8 -8 8 3 17 0 21 -5 3 -6 11 -9 16 -6 5 4 9 1 9 -4 0 -17
42 -54 49 -45 3 5 20 9 36 9 33 0 65 20 65 43 0 11 -8 13 -31 8 -24 -5 -30 -3
-26 8 11 29 -58 36 -87 9z m74 -51 c0 -12 -3 -12 -15 -2 -8 7 -15 13 -15 15 0
1 7 2 15 2 8 0 15 -7 15 -15z"/>
<path d="M4497 4543 c-4 -3 -7 -13 -7 -22 1 -14 3 -13 14 2 13 16 14 16 21 -5
l7 -23 8 25 c6 18 8 20 9 7 1 -11 6 -15 12 -11 6 3 15 0 20 -7 7 -11 9 -9 9 7
0 12 -7 25 -16 28 -21 8 -69 8 -77 -1z"/>
<path d="M4625 4540 c-8 -13 -1 -24 14 -19 6 3 7 10 2 18 -6 10 -10 10 -16 1z"/>
<path d="M4450 4496 c0 -2 9 -6 20 -9 11 -3 20 -1 20 4 0 5 -9 9 -20 9 -11 0
-20 -2 -20 -4z"/>
<path d="M3845 4240 c-3 -5 -1 -10 4 -10 6 0 11 5 11 10 0 6 -2 10 -4 10 -3 0
-8 -4 -11 -10z"/>
<path d="M3850 4210 c0 -5 5 -10 10 -10 6 0 10 5 10 10 0 6 -4 10 -10 10 -5 0
-10 -4 -10 -10z"/>
<path d="M4990 4084 c0 -8 5 -12 10 -9 6 4 8 11 5 16 -9 14 -15 11 -15 -7z"/>
<path d="M4967 4043 c-10 -9 -9 -33 1 -33 4 0 8 9 9 20 2 21 0 24 -10 13z"/>
<path d="M5141 4004 c0 -11 3 -14 6 -6 3 7 2 16 -1 19 -3 4 -6 -2 -5 -13z"/>
<path d="M4018 3912 c-32 -15 -56 -31 -55 -37 5 -13 78 -6 96 8 12 9 13 9 7 0
-9 -17 6 -17 22 -1 10 10 17 10 31 1 14 -9 22 -9 31 0 10 9 11 9 6 0 -5 -9 0
-13 13 -13 23 0 28 -15 9 -23 -10 -4 -10 -6 0 -6 7 -1 16 7 19 17 4 9 14 22
22 29 14 11 12 12 -12 13 -20 0 -26 4 -21 13 5 9 4 9 -6 0 -10 -9 -18 -8 -38
7 -33 27 -56 25 -124 -8z"/>
<path d="M4088 3804 c-18 -10 -25 -20 -21 -30 3 -9 9 -11 12 -6 3 5 16 14 29
21 12 6 22 16 22 21 0 13 -9 11 -42 -6z"/>
<path d="M4941 3794 c0 -11 3 -14 6 -6 3 7 2 16 -1 19 -3 4 -6 -2 -5 -13z"/>
<path d="M4026 3761 c-3 -4 -7 -25 -10 -45 -3 -25 -1 -36 9 -36 16 0 26 25 19
45 -4 10 0 15 11 15 15 0 15 2 1 15 -17 17 -23 18 -30 6z"/>
<path d="M4915 3732 c-6 -4 -7 -24 -4 -47 3 -22 7 -31 9 -20 7 54 9 75 7 75
-1 0 -7 -4 -12 -8z"/>
<path d="M3883 3704 c-2 -7 -6 -20 -7 -30 -1 -9 -10 -22 -19 -29 -23 -17 -21
-42 4 -56 18 -9 24 -8 31 4 5 10 15 14 25 10 14 -6 15 0 10 40 -4 29 -3 47 3
47 6 0 10 7 10 15 0 18 -50 17 -57 -1z"/>
<path d="M4061 3664 c0 -11 3 -14 6 -6 3 7 2 16 -1 19 -3 4 -6 -2 -5 -13z"/>
<path d="M3940 3660 c0 -5 5 -10 10 -10 6 0 10 5 10 10 0 6 -4 10 -10 10 -5 0
-10 -4 -10 -10z"/>
<path d="M4203 3642 c-7 -4 -10 -17 -6 -30 8 -32 20 -27 19 8 -1 16 -1 30 -1
30 0 0 -5 -4 -12 -8z"/>
<path d="M4140 3620 c0 -11 4 -20 9 -20 11 0 22 26 14 34 -12 12 -23 5 -23
-14z"/>
<path d="M4308 3583 c7 -3 16 -2 19 1 4 3 -2 6 -13 5 -11 0 -14 -3 -6 -6z"/>
<path d="M4875 3559 c-4 -6 -5 -12 -2 -15 2 -3 7 2 10 11 7 17 1 20 -8 4z"/>
<path d="M4355 3520 c3 -5 8 -10 11 -10 2 0 4 5 4 10 0 6 -5 10 -11 10 -5 0
-7 -4 -4 -10z"/>
<path d="M4845 3521 c-6 -11 9 -23 19 -14 9 9 7 23 -3 23 -6 0 -12 -4 -16 -9z"/>
<path d="M3775 3330 c3 -6 -1 -13 -9 -16 -9 -3 -13 -11 -9 -18 4 -6 8 -17 8
-25 0 -23 23 -24 30 -1 4 12 4 24 1 27 -3 4 -6 -1 -6 -10 0 -24 -15 -21 -17 3
-1 11 2 20 8 20 5 0 9 7 9 15 0 8 -5 15 -11 15 -5 0 -7 -5 -4 -10z"/>
<path d="M3885 3240 c3 -5 8 -10 11 -10 2 0 4 5 4 10 0 6 -5 10 -11 10 -5 0
-7 -4 -4 -10z"/>
<path d="M4688 3183 c7 -3 16 -2 19 1 4 3 -2 6 -13 5 -11 0 -14 -3 -6 -6z"/>
<path d="M4590 3122 c0 -5 7 -9 15 -9 8 0 12 4 9 9 -3 4 -9 8 -15 8 -5 0 -9
-4 -9 -8z"/>
<path d="M4560 3100 c0 -5 5 -10 10 -10 6 0 10 5 10 10 0 6 -4 10 -10 10 -5 0
-10 -4 -10 -10z"/>
<path d="M3710 3080 c0 -5 5 -10 11 -10 5 0 7 5 4 10 -3 6 -8 10 -11 10 -2 0
-4 -4 -4 -10z"/>
<path d="M3694 3038 c-4 -6 -3 -8 4 -4 6 3 13 2 17 -4 8 -13 25 -13 25 1 0 5
-4 7 -10 4 -5 -3 -10 -1 -10 4 0 15 -17 14 -26 -1z"/>
<path d="M4560 3040 c-9 -6 -10 -10 -3 -10 6 0 15 5 18 10 8 12 4 12 -15 0z"/>
<path d="M3770 3011 c0 -9 30 -24 36 -18 2 1 -6 8 -16 15 -11 7 -20 8 -20 3z"/>
<path d="M3668 2973 c-10 -2 -18 -9 -18 -14 0 -14 16 -11 30 6 7 8 11 14 9 14
-2 -1 -12 -3 -21 -6z"/>
<path d="M3705 2950 c-3 -5 -1 -10 4 -10 6 0 11 5 11 10 0 6 -2 10 -4 10 -3 0
-8 -4 -11 -10z"/>
<path d="M4476 2917 c3 -10 9 -15 12 -12 3 3 0 11 -7 18 -10 9 -11 8 -5 -6z"/>
<path d="M4415 2840 c-3 -5 -1 -10 4 -10 6 0 11 5 11 10 0 6 -2 10 -4 10 -3 0
-8 -4 -11 -10z"/>
<path d="M3758 2824 c-3 -5 -2 -18 2 -28 3 -11 9 -15 12 -10 3 5 2 18 -2 28
-3 11 -9 15 -12 10z"/>
<path d="M3710 2780 c0 -5 7 -10 16 -10 8 0 12 5 9 10 -3 6 -10 10 -16 10 -5
0 -9 -4 -9 -10z"/>
<path d="M3775 2771 c-3 -5 5 -13 17 -17 13 -4 35 -16 50 -27 15 -11 31 -18
34 -14 11 10 -17 37 -38 37 -10 0 -21 7 -24 15 -7 17 -30 20 -39 6z"/>
<path d="M3690 2751 c0 -5 7 -11 15 -15 9 -3 15 0 15 9 0 8 -7 15 -15 15 -8 0
-15 -4 -15 -9z"/>
<path d="M3745 2750 c3 -5 8 -10 11 -10 2 0 4 5 4 10 0 6 -5 10 -11 10 -5 0
-7 -4 -4 -10z"/>
<path d="M3720 2720 c-8 -5 -11 -12 -7 -16 4 -4 15 0 24 9 18 18 8 23 -17 7z"/>
<path d="M3757 2696 c-4 -10 -1 -13 9 -9 15 6 19 23 5 23 -5 0 -11 -7 -14 -14z"/>
<path d="M4611 2674 c-12 -20 -20 -38 -19 -40 2 -1 14 13 27 32 13 19 22 37
19 40 -3 3 -15 -12 -27 -32z"/>
<path d="M3816 2684 c-4 -9 -4 -19 -1 -22 2 -3 7 3 11 12 4 9 4 19 1 22 -2 3
-7 -3 -11 -12z"/>
<path d="M3878 2660 c2 -16 8 -28 12 -25 5 3 7 13 5 23 -2 9 -4 20 -4 25 -1 4
-5 7 -9 7 -5 0 -7 -13 -4 -30z"/>
<path d="M3820 2640 c0 -5 7 -7 15 -4 8 4 15 8 15 10 0 2 -7 4 -15 4 -8 0 -15
-4 -15 -10z"/>
<path d="M4030 2616 c0 -9 5 -16 10 -16 6 0 10 4 10 9 0 6 -4 13 -10 16 -5 3
-10 -1 -10 -9z"/>
<path d="M4030 2569 c0 -5 5 -7 10 -4 6 3 10 8 10 11 0 2 -4 4 -10 4 -5 0 -10
-5 -10 -11z"/>
<path d="M4475 2470 c-22 -33 -43 -60 -47 -60 -4 0 -15 -17 -25 -37 -9 -21
-27 -48 -38 -59 -36 -38 -53 -62 -48 -67 2 -3 -5 -8 -16 -12 -12 -3 -21 -13
-21 -20 0 -8 -10 -21 -22 -29 -12 -9 -19 -16 -15 -16 4 0 3 -9 -3 -20 -8 -15
-17 -19 -31 -15 -21 7 -23 -12 -4 -28 6 -6 5 -10 -4 -14 -7 -3 -22 -14 -32
-24 -18 -18 -19 -18 -20 -1 0 11 -4 7 -11 -10 -6 -19 -17 -28 -31 -28 -18 0
-19 -2 -7 -11 12 -9 13 -11 1 -16 -7 -3 -44 -37 -82 -75 -57 -58 -72 -68 -92
-62 -15 3 -28 1 -32 -7 -6 -9 -2 -11 13 -7 12 4 22 3 22 -2 0 -4 -12 -11 -26
-14 -21 -6 -24 -9 -14 -21 10 -12 9 -15 -8 -15 -16 0 -20 -4 -15 -17 4 -11 3
-14 -5 -9 -7 4 -12 2 -12 -3 0 -6 -6 -10 -12 -8 -7 1 -11 -5 -10 -13 2 -8 6
-49 9 -90 5 -64 2 -84 -17 -128 -13 -29 -21 -54 -19 -56 2 -2 60 -29 129 -61
69 -31 136 -66 150 -78 14 -12 22 -18 18 -13 -4 5 -4 14 1 20 7 8 -9 39 -45
91 -75 108 -94 150 -94 211 0 60 24 102 85 149 42 31 148 167 227 290 25 39
61 96 82 127 20 31 36 59 36 61 0 4 113 210 137 250 2 4 1 7 -4 7 -4 0 -26
-27 -48 -60z"/>
<path d="M3980 2439 c-8 -5 -28 -14 -44 -19 -45 -16 -22 -24 28 -10 25 7 47
18 50 26 6 16 -12 18 -34 3z"/>
<path d="M3048 2423 c7 -3 16 -2 19 1 4 3 -2 6 -13 5 -11 0 -14 -3 -6 -6z"/>
<path d="M3060 2379 c0 -5 5 -7 10 -4 6 3 10 8 10 11 0 2 -4 4 -10 4 -5 0 -10
-5 -10 -11z"/>
<path d="M3705 2240 c-3 -5 3 -10 15 -10 12 0 18 5 15 10 -3 6 -10 10 -15 10
-5 0 -12 -4 -15 -10z"/>
<path d="M3565 2100 c3 -5 11 -10 16 -10 6 0 7 5 4 10 -3 6 -11 10 -16 10 -6
0 -7 -4 -4 -10z"/>
<path d="M3670 1996 c0 -2 8 -10 18 -17 15 -13 16 -12 3 4 -13 16 -21 21 -21
13z"/>
<path d="M3625 1920 c-3 -5 -1 -10 4 -10 6 0 11 5 11 10 0 6 -2 10 -4 10 -3 0
-8 -4 -11 -10z"/>
<path d="M3771 1862 c17 -29 34 -52 36 -52 7 0 -41 81 -55 92 -7 7 1 -12 19
-40z"/>
<path d="M3663 1883 c-7 -3 -13 -9 -13 -14 0 -6 6 -9 13 -8 19 3 47 -12 47
-25 0 -6 14 -23 30 -38 29 -26 42 -56 18 -42 -7 4 -4 -2 7 -13 11 -11 22 -19
24 -17 7 6 -30 94 -39 94 -5 0 -24 15 -42 34 -18 19 -39 32 -45 29z"/>
</g>
</svg>
